<?xml version="1.0" encoding="UTF-8"?> <svg xmlns="http://www.w3.org/2000/svg" width="121.564" height="40.52" viewBox="0 0 121.564 40.52"><g id="Group_577" data-name="Group 577" transform="translate(-879.233 -9073.352)"><path id="Path_497" data-name="Path 497" d="M475.54,126.778a5.489,5.489,0,0,0,2.762-1.841,4.72,4.72,0,0,0,.921-2.915,5.9,5.9,0,0,0-.675-2.886,4.4,4.4,0,0,0-1.872-1.841,6.481,6.481,0,0,0-2.118-.6,25.828,25.828,0,0,0-3.223-.168h-9.606V138.2h9.238a23.89,23.89,0,0,0,3.822-.246,6.89,6.89,0,0,0,2.5-.89,5.822,5.822,0,0,0,1.948-2.1,5.954,5.954,0,0,0,.722-2.93,5.306,5.306,0,0,0-1.105-3.469,5.457,5.457,0,0,0-3.315-1.78m-8.655-6.076h3.927a6.767,6.767,0,0,1,1.6.153,2.605,2.605,0,0,1,.967.429,1.449,1.449,0,0,1,.49.676,2.677,2.677,0,0,1,.139.89,1.891,1.891,0,0,1-.753,1.626,4.058,4.058,0,0,1-2.378.553h-3.99Zm6.844,12.644a5.008,5.008,0,0,1-2.916.614h-3.927v-4.788H471a7.631,7.631,0,0,1,1.765.169,2.767,2.767,0,0,1,1.073.475,1.632,1.632,0,0,1,.538.768,3.174,3.174,0,0,1,.154,1.012,2.077,2.077,0,0,1-.8,1.75" transform="translate(417.582 8969.929)"></path><path id="Path_498" data-name="Path 498" d="M505.832,129.081a9.759,9.759,0,0,1-.261,2.455,3.752,3.752,0,0,1-.782,1.565,2.893,2.893,0,0,1-1.26.829,5.429,5.429,0,0,1-1.718.246,5.041,5.041,0,0,1-1.565-.231,2.789,2.789,0,0,1-1.228-.814,4.012,4.012,0,0,1-.814-1.565,8.765,8.765,0,0,1-.292-2.455V116.528h-5.156V128.8a17.425,17.425,0,0,0,.476,4.312,7.582,7.582,0,0,0,1.534,3.1,6.491,6.491,0,0,0,2.777,1.873,12.232,12.232,0,0,0,4.175.629q4.756,0,7.013-2.379t2.255-7.474V116.528h-5.156Z" transform="translate(429.643 8969.929)"></path><path id="Path_499" data-name="Path 499" d="M520.978,122.268q.014,2.273.031,3.79t.061,2.5q.046.981.108,1.872-.369-.8-.814-1.673t-1.273-2.347q-.829-1.475-2.164-3.822t-3.454-6.062h-5.555V138.2h5.156v-5.723q0-2.256-.015-3.745t-.046-2.44q-.031-.95-.061-1.78.367.737.89,1.719t1.38,2.547q.858,1.567,2.148,3.837t3.193,5.585h5.555V116.528h-5.156q0,3.468.015,5.74" transform="translate(435.537 8969.929)"></path><path id="Path_500" data-name="Path 500" d="M533.3,134.322a6.814,6.814,0,1,1,5.5-10.829l3.461-2.95a11.355,11.355,0,1,0,.007,13.923l-3.372-3.077a6.8,6.8,0,0,1-5.6,2.933" transform="translate(440.99 8969.783)"></path><path id="Path_501" data-name="Path 501" d="M486.691,116.153a11.356,11.356,0,1,0,11.356,11.357,11.356,11.356,0,0,0-11.356-11.357m0,18.17a6.814,6.814,0,1,1,6.813-6.813,6.813,6.813,0,0,1-6.813,6.813" transform="translate(422.871 8969.783)"></path><path id="Path_502" data-name="Path 502" d="M553.65,133.9H542.939v-4.665h10.006v-4.3H542.939v-4.113H553.65v-4.3H537.782V138.2H553.65Z" transform="translate(447.146 8969.929)"></path><rect id="Rectangle_984" data-name="Rectangle 984" width="5.156" height="3.169" transform="translate(922.398 9081.189)"></rect><rect id="Rectangle_985" data-name="Rectangle 985" width="5.155" height="3.169" transform="translate(922.4 9081.189)" fill="none"></rect><rect id="Rectangle_986" data-name="Rectangle 986" width="5.156" height="3.169" transform="translate(935.475 9081.189)"></rect><rect id="Rectangle_987" data-name="Rectangle 987" width="5.156" height="3.169" transform="translate(935.475 9081.189)" fill="none"></rect><path id="Path_503" data-name="Path 503" d="M515.287,115.915c-.5-.886-1.214-2.132-1.812-3.18h-5.556v3.18Z" transform="translate(435.537 8968.454)"></path><rect id="Rectangle_988" data-name="Rectangle 988" width="7.369" height="3.18" transform="translate(943.455 9081.189)" fill="none"></rect><path id="Path_504" data-name="Path 504" d="M522.467,115.9v-3.169h-5.156q0,1.721,0,3.169Z" transform="translate(439.188 8968.454)"></path><rect id="Rectangle_989" data-name="Rectangle 989" width="5.156" height="3.169" transform="translate(956.498 9081.189)" fill="none"></rect><rect id="Rectangle_990" data-name="Rectangle 990" width="15.868" height="3.165" transform="translate(984.928 9081.193)"></rect><rect id="Rectangle_991" data-name="Rectangle 991" width="15.868" height="3.165" transform="translate(984.928 9081.193)" fill="none"></rect><path id="Path_505" data-name="Path 505" d="M478.789,115.916a5.26,5.26,0,0,0-.24-.515,4.448,4.448,0,0,0-1.873-1.883,6.323,6.323,0,0,0-2.118-.611,24.881,24.881,0,0,0-3.222-.174h-9.607v3.183Z" transform="translate(417.58 8968.453)"></path><rect id="Rectangle_992" data-name="Rectangle 992" width="17.061" height="3.183" transform="translate(879.309 9081.187)" fill="none"></rect><path id="Path_506" data-name="Path 506" d="M494.184,116.038a11.354,11.354,0,0,0-16.674,0Z" transform="translate(423.715 8968.321)"></path><rect id="Rectangle_993" data-name="Rectangle 993" width="16.675" height="3.647" transform="translate(901.225 9080.712)" fill="none"></rect><path id="Path_507" data-name="Path 507" d="M540.75,116.038a11.354,11.354,0,0,0-16.674,0Z" transform="translate(441.816 8968.321)"></path><rect id="Rectangle_994" data-name="Rectangle 994" width="16.676" height="3.647" transform="translate(965.891 9080.712)" fill="none"></rect><path id="Path_508" data-name="Path 508" d="M515.665,133.634c.5.886,1.215,2.132,1.812,3.18h5.556v-3.18Z" transform="translate(438.549 8976.579)"></path><rect id="Rectangle_995" data-name="Rectangle 995" width="7.369" height="3.18" transform="translate(954.213 9110.213)" fill="none"></rect><path id="Path_509" data-name="Path 509" d="M512.967,133.641v3.169h-5.156q0-1.721,0-3.169Z" transform="translate(435.496 8976.582)"></path><rect id="Rectangle_996" data-name="Rectangle 996" width="5.156" height="3.169" transform="translate(943.307 9110.223)" fill="none"></rect><rect id="Rectangle_997" data-name="Rectangle 997" width="15.868" height="3.165" transform="translate(984.852 9110.224)"></rect><rect id="Rectangle_998" data-name="Rectangle 998" width="15.866" height="3.165" transform="translate(984.854 9110.224)" fill="none"></rect><path id="Path_510" data-name="Path 510" d="M478.735,133.634a5.282,5.282,0,0,1-.24.515,4.449,4.449,0,0,1-1.873,1.883,6.323,6.323,0,0,1-2.118.611,24.882,24.882,0,0,1-3.222.174h-9.607v-3.183Z" transform="translate(417.559 8976.579)"></path><rect id="Rectangle_999" data-name="Rectangle 999" width="17.059" height="3.183" transform="translate(879.234 9110.213)" fill="none"></rect><path id="Path_511" data-name="Path 511" d="M494.13,133.642a11.354,11.354,0,0,1-16.675,0Z" transform="translate(423.693 8976.582)"></path><rect id="Rectangle_1000" data-name="Rectangle 1000" width="16.675" height="3.647" transform="translate(901.148 9110.224)" fill="none"></rect><path id="Path_512" data-name="Path 512" d="M509.85,133.642a11.354,11.354,0,0,1-16.674,0Z" transform="translate(429.805 8976.582)"></path><rect id="Rectangle_1001" data-name="Rectangle 1001" width="16.675" height="3.647" transform="translate(922.98 9110.224)" fill="none"></rect><path id="Path_513" data-name="Path 513" d="M540.7,133.642a11.354,11.354,0,0,1-16.674,0Z" transform="translate(441.795 8976.582)"></path><rect id="Rectangle_1002" data-name="Rectangle 1002" width="16.675" height="3.647" transform="translate(965.816 9110.224)" fill="none"></rect><path id="Path_514" data-name="Path 514" d="M478.207,111.79a4.305,4.305,0,0,0-1.532-1.307,6.412,6.412,0,0,0-2.118-.6,25.5,25.5,0,0,0-3.222-.169h-9.607v2.075Z" transform="translate(417.58 8967.28)"></path><path id="Path_515" data-name="Path 515" d="M492.758,111.936a11.349,11.349,0,0,0-14.447,0Z" transform="translate(424.027 8967.135)"></path><rect id="Rectangle_1003" data-name="Rectangle 1003" width="5.156" height="2.075" transform="translate(922.4 9076.995)"></rect><rect id="Rectangle_1004" data-name="Rectangle 1004" width="5.156" height="2.075" transform="translate(935.475 9076.995)"></rect><path id="Path_516" data-name="Path 516" d="M514.656,111.79q-.558-.979-1.183-2.075h-5.555v2.075Z" transform="translate(435.535 8967.28)"></path><path id="Path_517" data-name="Path 517" d="M522.467,111.79v-2.075h-5.156c0,.732,0,1.422,0,2.075Z" transform="translate(439.188 8967.28)"></path><path id="Path_518" data-name="Path 518" d="M539.289,111.929a11.354,11.354,0,0,0-14.393,0Z" transform="translate(442.137 8967.142)"></path><rect id="Rectangle_1005" data-name="Rectangle 1005" width="15.868" height="2.071" transform="translate(984.928 9077)"></rect><rect id="Rectangle_1006" data-name="Rectangle 1006" width="121.486" height="2.596" transform="translate(879.309 9076.475)" fill="none"></rect><path id="Path_519" data-name="Path 519" d="M477.13,108.5a4.615,4.615,0,0,0-.456-.269,6.446,6.446,0,0,0-2.118-.6,25.539,25.539,0,0,0-3.222-.168h-9.607V108.5Z" transform="translate(417.58 8966.406)"></path><path id="Path_520" data-name="Path 520" d="M490.858,108.648a11.359,11.359,0,0,0-11.479,0Z" transform="translate(424.441 8966.261)"></path><rect id="Rectangle_1007" data-name="Rectangle 1007" width="5.156" height="1.036" transform="translate(922.4 9073.872)"></rect><rect id="Rectangle_1008" data-name="Rectangle 1008" width="5.156" height="1.036" transform="translate(935.475 9073.872)"></rect><path id="Path_521" data-name="Path 521" d="M514.065,108.5l-.592-1.036h-5.555V108.5Z" transform="translate(435.535 8966.406)"></path><path id="Path_522" data-name="Path 522" d="M522.467,108.5v-1.036h-5.156V108.5Z" transform="translate(439.188 8966.406)"></path><path id="Path_523" data-name="Path 523" d="M537.375,108.642a11.359,11.359,0,0,0-11.4,0Z" transform="translate(442.555 8966.267)"></path><rect id="Rectangle_1009" data-name="Rectangle 1009" width="15.868" height="1.033" transform="translate(984.928 9073.877)"></rect><rect id="Rectangle_1010" data-name="Rectangle 1010" width="121.486" height="1.557" transform="translate(879.309 9073.352)" fill="none"></rect></g></svg> 