<?xml version="1.0" encoding="UTF-8"?> <svg xmlns="http://www.w3.org/2000/svg" width="96.943" height="44.316" viewBox="0 0 96.943 44.316"><g id="Group_571" data-name="Group 571" transform="translate(-699.53 -8934.377)"><path id="Path_455" data-name="Path 455" d="M357.891,21.668V8.889h-12.84V21.668H332.272v12.84h12.779V47.225h12.84V34.508h12.779V21.668Z" transform="translate(367.258 8928.086)"></path><path id="Path_456" data-name="Path 456" d="M372.529,12.894a2.827,2.827,0,0,0,1.737-2.668c0-2.357-1.614-3.164-4.094-3.164h-6.017V19.842h6.2c2.294,0,4.527-1.117,4.527-3.722a3.1,3.1,0,0,0-2.357-3.226m-5.645-3.722h2.668c.993,0,1.923.249,1.923,1.489,0,1.055-.744,1.551-1.737,1.551h-2.854Zm3.04,8.437h-2.977V14.073h3.04c1.178,0,2.047.5,2.047,1.8s-.993,1.737-2.11,1.737" transform="translate(379.65 8927.377)"></path><path id="Path_457" data-name="Path 457" d="M372.687,9.635h2.419v1.737h.063a3.237,3.237,0,0,1,2.915-1.986c.186,0,.372.062.558.062v2.419a4.365,4.365,0,0,0-.93-.062c-1.861,0-2.482,1.365-2.482,2.977V19h-2.543Z" transform="translate(382.967 8928.279)"></path><rect id="Rectangle_979" data-name="Rectangle 979" width="2.543" height="9.305" transform="translate(762.85 8937.914)"></rect><rect id="Rectangle_980" data-name="Rectangle 980" width="2.543" height="2.109" transform="translate(762.852 8934.377)"></rect><path id="Path_458" data-name="Path 458" d="M384.732,10.346h1.861v1.737h-1.861v4.59c0,.869.249,1.117,1.054,1.117a3.872,3.872,0,0,0,.807-.061v1.984a10.916,10.916,0,0,1-1.489.062c-1.551,0-2.915-.372-2.915-2.233V12.084h-1.551V10.346h1.551V7.555h2.543Z" transform="translate(386.059 8927.567)"></path><rect id="Rectangle_981" data-name="Rectangle 981" width="2.543" height="9.305" transform="translate(774.449 8937.914)"></rect><rect id="Rectangle_982" data-name="Rectangle 982" width="2.543" height="2.109" transform="translate(774.512 8934.377)"></rect><path id="Path_459" data-name="Path 459" d="M391.276,15.9c0,1.117.93,1.551,1.984,1.551.744,0,1.675-.311,1.675-1.179,0-.807-1.054-1.054-2.852-1.426-1.489-.311-2.977-.869-2.977-2.482,0-2.357,2.047-2.977,4.032-2.977s3.908.682,4.094,2.977h-2.419c-.062-.993-.807-1.24-1.737-1.24-.558,0-1.426.124-1.426.868,0,.93,1.426,1.054,2.915,1.365s2.916.868,2.916,2.605c0,2.48-2.109,3.225-4.219,3.225-2.171,0-4.28-.805-4.4-3.287Z" transform="translate(389.254 8928.279)"></path><path id="Path_460" data-name="Path 460" d="M395.825,7.019h2.543v4.838h.062a3.187,3.187,0,0,1,2.729-1.551c2.73,0,3.351,1.551,3.351,3.847v5.706h-2.544V14.588c0-1.551-.435-2.3-1.612-2.3-1.365,0-1.986.744-1.986,2.668v4.9h-2.543Z" transform="translate(391.963 8927.359)"></path><path id="Path_461" data-name="Path 461" d="M374.593,28.295c-.061-1.3-.5-2.605-1.861-2.977v-.062a3.156,3.156,0,0,0,1.986-3.226A3.507,3.507,0,0,0,371,18.493h-6.885V31.335H366.9V26.309h2.852c1.428,0,1.923.621,2.172,1.923a14.977,14.977,0,0,0,.433,3.1h2.793a7.343,7.343,0,0,1-.56-3.04M370,24.324h-3.1V20.665H370c1.24,0,1.923.558,1.923,1.8,0,1.3-.683,1.861-1.923,1.861" transform="translate(379.633 8931.819)"></path><path id="Path_462" data-name="Path 462" d="M377.043,20.861a4.645,4.645,0,0,0-4.713,4.9,4.542,4.542,0,0,0,4.713,4.9,4.132,4.132,0,0,0,4.343-3.164h-2.233a2.074,2.074,0,0,1-1.984,1.242c-1.428,0-2.172-.744-2.233-2.358h6.637c.186-2.852-1.365-5.52-4.529-5.52m-2.171,3.908a2.011,2.011,0,0,1,2.109-1.984c1.24,0,1.8.682,2.047,1.984Z" transform="translate(382.828 8932.74)"></path><path id="Path_463" data-name="Path 463" d="M386.5,18.493v4.654h-.062a3.212,3.212,0,0,0-2.729-1.365c-2.729,0-4.094,2.3-4.094,4.838s1.365,4.962,4.156,4.962a3.026,3.026,0,0,0,2.791-1.426h.061v1.179h2.419V18.493Zm-2.047,11.1c-1.612,0-2.233-1.551-2.233-2.977,0-1.551.558-2.977,2.233-2.977,1.612.062,2.171,1.489,2.171,2.977s-.5,2.977-2.171,2.977" transform="translate(385.658 8931.819)"></path><path id="Path_464" data-name="Path 464" d="M373.145,33.826a2.757,2.757,0,0,0-2.791-2.233c-2.482,0-3.475,2.171-3.475,4.4,0,2.172.932,4.281,3.475,4.281a2.859,2.859,0,0,0,2.915-2.854H376a5.428,5.428,0,0,1-5.645,5.273c-3.97,0-6.266-2.979-6.266-6.7,0-3.783,2.3-6.76,6.266-6.76,2.854,0,5.211,1.612,5.52,4.59Z" transform="translate(379.625 8935.996)"></path><path id="Path_465" data-name="Path 465" d="M373.513,32.075h2.419v1.737h.063a3.323,3.323,0,0,1,2.977-1.986c.186,0,.372.062.558.062v2.419a4.366,4.366,0,0,0-.93-.062c-1.861,0-2.482,1.365-2.482,2.977v4.219h-2.543V32.075Z" transform="translate(383.289 8937.003)"></path><path id="Path_466" data-name="Path 466" d="M382.8,31.827a4.559,4.559,0,0,0-4.776,4.9,4.529,4.529,0,0,0,4.776,4.9,4.576,4.576,0,0,0,4.838-4.9,4.544,4.544,0,0,0-4.838-4.9m.063,7.877c-1.737,0-2.233-1.55-2.233-2.977,0-1.487.5-2.976,2.233-2.976s2.233,1.489,2.233,2.976-.5,2.977-2.233,2.977" transform="translate(385.043 8937.003)"></path><path id="Path_467" data-name="Path 467" d="M387.976,38.34c0,1.117.93,1.551,1.984,1.551.744,0,1.675-.311,1.675-1.179,0-.807-1.054-1.054-2.915-1.426-1.489-.311-2.915-.869-2.915-2.482,0-2.357,2.047-2.977,4.031-2.977,2.047,0,3.908.682,4.094,2.977h-2.419c-.062-.993-.807-1.24-1.737-1.24-.558,0-1.426.124-1.426.868,0,.93,1.426,1.054,2.915,1.365s2.916.868,2.916,2.605c0,2.48-2.109,3.225-4.219,3.225-2.171,0-4.218-.805-4.341-3.287Z" transform="translate(387.994 8937.003)"></path><path id="Path_468" data-name="Path 468" d="M394.782,38.34c0,1.117.93,1.551,1.923,1.551.744,0,1.675-.311,1.675-1.179,0-.807-1.055-1.054-2.916-1.426-1.426-.311-2.915-.869-2.915-2.482,0-2.357,2.047-2.977,4.031-2.977,2.047,0,3.908.682,4.094,2.977h-2.419c-.061-.993-.805-1.24-1.736-1.24-.558,0-1.365.124-1.365.868,0,.93,1.426,1.054,2.854,1.365,1.489.31,2.977.868,2.977,2.605,0,2.48-2.109,3.225-4.28,3.225-2.109,0-4.219-.805-4.343-3.287Z" transform="translate(390.617 8937.003)"></path></g></svg> 