<?xml version="1.0" encoding="UTF-8"?> <svg xmlns="http://www.w3.org/2000/svg" width="132.917" height="32.96" viewBox="0 0 132.917 32.96"><g id="Group_570" data-name="Group 570" transform="translate(-456.147 -8941.621)"><path id="Path_453" data-name="Path 453" d="M245.918,31.715a2.83,2.83,0,0,0-1.973-.875c-.776,0-1.335.407-1.335,1,0,1.614,3.638,1.59,3.638,4.265a2.247,2.247,0,0,1-2.354,2.28,3.7,3.7,0,0,1-2.354-.775V36.08A2.837,2.837,0,0,0,243.76,37.3c.937,0,1.368-.593,1.368-1.061,0-1.737-3.64-1.936-3.64-4.243a2.264,2.264,0,0,1,2.554-2.246,3.37,3.37,0,0,1,1.876.593m-9.542-.482h1.21v8.41h-1.21Zm-8.249,4.848h2.616l-1.36-3.047Zm5.462,3.562h-1.232L231.233,35.8H227.66L226.6,38.274h-1.236l3.613-8.457h.853Zm-11.171,0h-1.036L215.759,31.8v6.473h-1.135v-8.41h.961l5.7,6.513V29.864h1.135Zm-16.191-3.562h2.612l-1.355-3.047Zm5.462,3.562h-1.232L209.333,35.8h-3.577l-1.06,2.479h-1.232l3.612-8.457h.85Zm-15.127-1.083h1.517c1.419,0,1.8-.7,1.8-1.332,0-.765-.59-1.308-1.861-1.308h-1.454Zm0-3.723h.8c1.194,0,1.775-.446,1.775-1.347,0-.628-.356-1.171-1.466-1.171h-1.111Zm-1.208-3.6h2.441c1.815,0,2.589,1.086,2.589,2.146a1.8,1.8,0,0,1-1.279,1.8v.024a2.215,2.215,0,0,1,2.018,2.194c0,1.039-.775,2.244-2.883,2.244h-2.886Zm-5.445,0h1.21v8.41h-1.21Zm-7.1,7.327h3.8v1.083H181.6v-8.41h1.21Z" transform="translate(308.684 8936.197)" fill-rule="evenodd"></path><path id="Path_454" data-name="Path 454" d="M285.031,17.361c0-1.212-.8-1.626-2.164-1.626h-1.29V19.9h1.232c1.373,0,2.222-.532,2.222-2.009m.354,12.494-2.712-7.206h-1.1v7.206H277.5v-17.9h5.449c2.794,0,6.191.885,6.191,4.961v.324a4.835,4.835,0,0,1-2.519,4.637l3.315,7.975Zm-23.135,0v-3.24h2.925V15.77h-2.925V12.53h9.9v3.24h-2.9V27.145h2.9v3.24Zm-9.152-12.2c0-2.151-.683-2.5-1.861-2.5s-1.829.353-1.829,2.5V24.7c0,2.151.654,2.505,1.829,2.505s1.861-.354,1.861-2.505ZM251.238,30.65c-3.332,0-5.9-1.444-5.9-5.953v-6.51c0-4.506,2.571-5.952,5.9-5.952s5.934,1.446,5.934,5.952V24.7c0,4.509-2.6,5.953-5.934,5.953M237.276,15.77V30.385h-4.069V15.77h-3.77V12.53h11.613v3.24Zm-16.008,2.416c0-2.122-.765-2.416-2.022-2.416h-1.366V21.4h1.285c1.257,0,2.1-.647,2.1-2.68Zm-1.887,6.483h-1.5v5.716h-4.073V12.53h5.522c3.337,0,6.041,1.236,6.041,5.685v.474c0,4.655-2.9,5.98-5.988,5.98M203.5,30.385V20.633L200.8,30.385h-2.759l-2.54-9.517v9.517h-3.444V12.53h4.373l3.305,11.578,3.364-11.578h4.315V30.385Zm-21.782-12.2c0-2.151-.682-2.5-1.858-2.5s-1.83.353-1.83,2.5V24.7c0,2.151.657,2.505,1.83,2.505s1.858-.354,1.858-2.505ZM179.863,30.65c-3.334,0-5.9-1.444-5.9-5.953v-6.51c0-4.506,2.566-5.952,5.9-5.952s5.931,1.446,5.931,5.952V24.7c0,4.509-2.6,5.953-5.931,5.953M164.777,17.981v-.558c0-1.179-.3-1.771-1.83-1.771-1.367,0-1.829.471-1.829,2.594v6.041c0,2.121,1.092,2.709,2.432,2.709a10.027,10.027,0,0,0,4.425-1.121l.219,3.448a8.706,8.706,0,0,1-5,1.326c-3.69,0-6.174-1.472-6.174-6.216V18.186c0-4.506,2.432-5.952,5.792-5.952h.382c3.17,0,5.248,1.68,5.248,4.422v1.325Z" transform="translate(299.129 8929.387)" fill-rule="evenodd"></path></g></svg> 