<?xml version="1.0" encoding="UTF-8"?> <svg xmlns="http://www.w3.org/2000/svg" width="103.409" height="22.134" viewBox="0 0 103.409 22.134"><g id="Group_581" data-name="Group 581" transform="translate(-697.963 -9222.8)"><path id="Path_587" data-name="Path 587" d="M351.065,215.06h3.541v21.425h-3.541Zm-6.463,2.566c-2.036-1.771-4.958-2.566-8.853-2.566h-4.6v21.425h4.515c3.984,0,7-.886,9.031-2.746a10.844,10.844,0,0,0-.089-16.113m-2.3,13.547c-1.329,1.239-3.541,1.947-6.552,1.947h-.974v-14.7h.974c3.011,0,5.136.619,6.463,1.771a7.6,7.6,0,0,1,.089,10.979m88.977-13.193a10.632,10.632,0,0,0-7.88-3.275,11.184,11.184,0,0,0-11.156,11.067,11.156,11.156,0,0,0,22.311,0,10.777,10.777,0,0,0-3.276-7.792m-2.568,13.193a7.281,7.281,0,0,1-5.4,2.212,7.632,7.632,0,0,1-7.613-7.7,7.847,7.847,0,0,1,2.214-5.49,7.084,7.084,0,0,1,5.312-2.214,7.847,7.847,0,0,1,5.488,2.391,7.7,7.7,0,0,1,0,10.8m-29.57,5.312h11.686v-3.365h-8.145v-6.64h7.437v-3.365h-7.526v-4.693h8.234V215.06H399.14Zm-2.479-11.421H387.1v3.364h5.931A5.445,5.445,0,0,1,391,231.882a6.976,6.976,0,0,1-4.427,1.593,7.885,7.885,0,0,1-7.437-7.614,7.557,7.557,0,0,1,2.3-5.577,6.954,6.954,0,0,1,5.313-2.214c2.566,0,4.6,1.24,6.374,3.541l2.655-2.3a10.806,10.806,0,0,0-9.03-4.6A11.069,11.069,0,1,0,391,235.865a9.576,9.576,0,0,0,3.541-2.655,9.1,9.1,0,0,0,1.86-3.541,13.35,13.35,0,0,0,.354-3.984Zm-31.342-10.093-9.384,21.514h3.9l2.036-4.781a.883.883,0,0,1,.089-.265c.089,0,.176.089.354.176a11.264,11.264,0,0,0,3.9.708,11.8,11.8,0,0,0,3.452-.531c.443-.089.532-.178.621-.265a.892.892,0,0,1,.087.265l1.948,4.693H376.3l-9.209-21.514Zm3.719,13.546-.354.089a10.491,10.491,0,0,1-2.479.354,7.645,7.645,0,0,1-2.479-.354,1.5,1.5,0,0,0-.443-.178,1.482,1.482,0,0,0,.178-.443l2.744-6.551,2.655,6.64a.675.675,0,0,1,.178.443" transform="translate(366.818 9008.094)"></path></g></svg> 