<?xml version="1.0" encoding="UTF-8"?> <svg xmlns="http://www.w3.org/2000/svg" width="90.224" height="48.051" viewBox="0 0 90.224 48.051"><g id="Group_569" data-name="Group 569" transform="translate(-259.771 -8931.145)"><path id="Path_444" data-name="Path 444" d="M35.993,4.69V6.165H34.938c-.117,0-.235,0-.351,0-1.037.018-1.464.456-1.464,1.5q0,7.024,0,14.05A6.461,6.461,0,0,1,28.789,28.1c-.049.019-.1.042-.225.1.364.072.655.122.943.189a11.5,11.5,0,0,1,8.984,9.648,13.407,13.407,0,0,1-.843,7.663,11.207,11.207,0,0,1-8.132,6.808c-.5.108-1.005.157-1.508.235H26.154c-.482-.075-.968-.129-1.446-.228A11.384,11.384,0,0,1,15.94,43.6c-.139-.719-.221-1.448-.329-2.172V39.322c.019-.1.042-.206.058-.31.111-.7.164-1.421.343-2.105a11.5,11.5,0,0,1,6.5-7.86c.331-.156.682-.271,1.067-.422-.385-.086-.718-.144-1.043-.235a6.642,6.642,0,0,1-4.622-3.79,4.516,4.516,0,0,1,.692-5.045,3.442,3.442,0,0,1,3.883-.879A3.017,3.017,0,0,1,24.3,21.91a2.269,2.269,0,0,1-2.834,2.154,3.435,3.435,0,0,0-.629-.09c-.617-.024-.853.247-.783.865a1.929,1.929,0,0,0,.89,1.378,5.133,5.133,0,0,0,3.765.854,3.587,3.587,0,0,0,3.045-2.479,6.762,6.762,0,0,0,.376-2.414q.006-7.266,0-14.53a2.736,2.736,0,0,0-.042-.476,1,1,0,0,0-.954-.954c-.665-.061-1.339-.04-2.008-.051-.231,0-.461,0-.7,0V4.69Zm-14.937,36.4c.039.643.079,1.823.19,3a10.959,10.959,0,0,0,1.121,4.127,5.293,5.293,0,0,0,6.28,2.719,5.408,5.408,0,0,0,3.445-3.273A13.624,13.624,0,0,0,33.1,42.5c.051-1.762.014-3.529-.06-5.291a11.534,11.534,0,0,0-.755-3.832,5.285,5.285,0,0,0-4.523-3.669,4.881,4.881,0,0,0-4.708,1.969,8.68,8.68,0,0,0-1.383,2.993,24.734,24.734,0,0,0-.619,6.423" transform="translate(244.16 8926.454)"></path><path id="Path_445" data-name="Path 445" d="M84.878,22.506c-.472.615-.9,1.267-1.423,1.837a6.769,6.769,0,0,1-4.436,2.147,9.116,9.116,0,0,1-5.461-.864,7.284,7.284,0,0,1-3.944-5.767,8.292,8.292,0,0,1,.667-4.834,8.091,8.091,0,0,1,11.168-3.562,6.692,6.692,0,0,1,3.09,4.5c.143.629.189,1.282.281,1.923.017.114.039.228.058.342V18.8c-.117.007-.233.021-.349.021H74.945a.958.958,0,0,0-.317.01c-.082.031-.2.132-.2.2a10.053,10.053,0,0,0,.474,2.98,4.044,4.044,0,0,0,4.226,2.918,4.785,4.785,0,0,0,3.252-1.578c.555-.594,1.039-1.257,1.573-1.911.286.172.6.364.921.554ZM74.427,17.39h.367c1.586,0,3.172.015,4.758-.018a.964.964,0,0,0,1.079-.954,4.831,4.831,0,0,0-.407-2.923,2.7,2.7,0,0,0-2.494-1.6,2.6,2.6,0,0,0-2.475,1.555,9.331,9.331,0,0,0-.828,3.937" transform="translate(265.117 8928.7)"></path><path id="Path_446" data-name="Path 446" d="M46.308,12.573v-1.43l6.162-.336c.153,1.075.3,2.137.457,3.205.418-.454.822-.917,1.251-1.353a6.384,6.384,0,0,1,3.932-1.993c2.6-.282,4.469.73,5.355,3.248.031.087.068.175.1.262.453-.5.875-1,1.336-1.472a6.576,6.576,0,0,1,3.879-2.047,4.885,4.885,0,0,1,4.4,1.261,4.876,4.876,0,0,1,1.3,2.886,10.257,10.257,0,0,1,.076,1.305c.007,2.29.011,4.579,0,6.869a1.25,1.25,0,0,0,.792,1.262,3.419,3.419,0,0,0,2.905-.022,1.219,1.219,0,0,0,.761-1.214C78.995,20.1,79,17.192,79,14.286A1.56,1.56,0,0,0,77.395,12.6c-.254-.011-.508,0-.792,0V11.147c.933-.046,1.855-.1,2.777-.137,1.137-.051,2.275-.1,3.412-.144.408-.018.41-.019.41.408V23.317c0,.851.368,1.226,1.218,1.236.351,0,.7,0,1.105,0v1.46h-17.6v-1.46c.325,0,.651,0,.978,0,1.019,0,1.436-.421,1.436-1.436,0-2.193.022-4.387-.015-6.58A5.592,5.592,0,0,0,70,14.765a2.29,2.29,0,0,0-2.126-1.528,3.258,3.258,0,0,0-3.429,1.929,5.849,5.849,0,0,0-.694,2.815c.031,1.7.008,3.407.008,5.111,0,1.037.421,1.46,1.45,1.461H66.2c0,.461.008.893-.011,1.325,0,.058-.154.154-.237.156-.553.015-1.107.008-1.661.008H57.066V24.552c.394,0,.775,0,1.155,0,.929-.008,1.322-.368,1.326-1.289.01-2.364.025-4.727-.019-7.091a2.9,2.9,0,0,0-1.621-2.736,3.224,3.224,0,0,0-3.67.849,4.527,4.527,0,0,0-1.265,3.18c.025,1.723.006,3.45.007,5.174,0,.212.011.425.028.637a1.237,1.237,0,0,0,1.367,1.273c.326.007.654,0,.994,0,.008.083.019.133.019.185,0,.414,0,.829,0,1.283-.139.007-.26.019-.382.019-2.8,0-5.6,0-8.4.007a1.979,1.979,0,0,0-.7.144,5.955,5.955,0,0,1-2.968.442,3.671,3.671,0,0,1-2.939-2.369c-.062-.135-.118-.272-.179-.408-.008-.017-.031-.029-.021-.021-.674.536-1.311,1.122-2.025,1.593a6.692,6.692,0,0,1-6.055.736c-3.127-1.06-2.926-4.177-1.721-5.792a6.038,6.038,0,0,1,2.957-2.023,40.926,40.926,0,0,1,5.806-1.461c.229-.044.457-.1.689-.125.2-.021.239-.117.237-.3-.007-.639.006-1.278,0-1.916a2.771,2.771,0,0,0-2.627-2.839,3.911,3.911,0,0,0-2.515.526c-.465.292-.515.5-.224.967a2.637,2.637,0,0,1,.442,1.694,1.761,1.761,0,0,1-1.39,1.63,3.966,3.966,0,0,1-1.572-.015A2.137,2.137,0,0,1,30.5,13.43a4.33,4.33,0,0,1,1.857-1.916,8.753,8.753,0,0,1,4.383-1.193,12.6,12.6,0,0,1,4.061.536,4.29,4.29,0,0,1,3.069,4.006c.064,1.221.029,2.448.033,3.672,0,1.321.025,2.641-.007,3.961a1.757,1.757,0,0,0,1.562,1.961,3.254,3.254,0,0,0,2.651-.494,1.432,1.432,0,0,0,.626-1.257c-.007-2.811,0-5.622,0-8.434a1.447,1.447,0,0,0-1.458-1.626c-.314-.037-.632-.049-.967-.072m-6.619,5.485c-.91.193-1.743.356-2.568.554a7.128,7.128,0,0,0-1.142.4,3.2,3.2,0,0,0-2.068,3.508,1.9,1.9,0,0,0,1.58,1.794,3.5,3.5,0,0,0,3.925-2.386,13.667,13.667,0,0,0,.272-3.869" transform="translate(249.434 8928.641)"></path><path id="Path_447" data-name="Path 447" d="M31.819,25.156V23.777c.635-.025,1.26-.037,1.882-.074a7.589,7.589,0,0,0,3.439-.837A3.623,3.623,0,0,0,37.9,22.3a.833.833,0,0,1,.76-.261v.585q0,9.936-.006,19.871a1.227,1.227,0,0,0,.837,1.26,4.565,4.565,0,0,0,3.336,0,1.265,1.265,0,0,0,.872-1.33c-.025-2.876-.01-5.751-.011-8.627a1.571,1.571,0,0,0-1.672-1.721c-.242-.007-.483,0-.74,0v-1.45l6.609-.3V42.664c0,.1,0,.192,0,.287a1,1,0,0,0,1.023,1.071c.212.018.426.012.639.015s.4,0,.629,0V45.52H32.1V44.037h.865c1.061,0,1.511-.447,1.512-1.518q0-7.828,0-15.655a1.644,1.644,0,0,0-1.648-1.707c-.328-.011-.655,0-1.012,0" transform="translate(250.461 8933.193)"></path><path id="Path_448" data-name="Path 448" d="M70.9,38.572c.4.25.772.478,1.153.712-1.3,2.354-3.087,4-5.837,4.341a9.444,9.444,0,0,1-5.077-.561,7.3,7.3,0,0,1-4.565-6.306,8.187,8.187,0,0,1,.9-4.977A7.521,7.521,0,0,1,64,27.639a7.821,7.821,0,0,1,4.169.835,6.689,6.689,0,0,1,3.409,4.873c.169.849.225,1.721.34,2.632H61.407c.031.474.044.9.092,1.332a6.912,6.912,0,0,0,.749,2.651,4.124,4.124,0,0,0,5.594,1.679,7.1,7.1,0,0,0,2.614-2.423c.147-.207.29-.417.45-.644m-9.488-4.036c.108.008.171.017.232.017q2.348,0,4.694,0a2.5,2.5,0,0,0,.443-.051.9.9,0,0,0,.793-.725,4.748,4.748,0,0,0-.293-2.964,2.688,2.688,0,0,0-2.49-1.748,2.623,2.623,0,0,0-2.589,1.625,9.608,9.608,0,0,0-.79,3.848" transform="translate(260.063 8935.37)"></path><path id="Path_449" data-name="Path 449" d="M77.86,41.784v1.473H67.6V41.784c.353,0,.69.006,1.028,0a3.805,3.805,0,0,0,.667-.044,1.08,1.08,0,0,0,.985-1.2q0-4.36,0-8.72a3.453,3.453,0,0,0-.071-.7,1.626,1.626,0,0,0-1.761-1.343c-.265-.007-.53,0-.822,0v-1.4l6.309-.331v4.533c.028,0,.054.01.082.015.036-.122.072-.246.11-.369a6.232,6.232,0,0,1,2.511-3.654,4.106,4.106,0,0,1,3.987-.4,2.72,2.72,0,0,1,.875,4.352,1.785,1.785,0,0,1-1.886.451,1.837,1.837,0,0,1-1.275-1.5,2.33,2.33,0,0,1,.206-1.458c.112-.251.285-.532.033-.768s-.571-.1-.836.028a3.42,3.42,0,0,0-1.3,1.24,12.109,12.109,0,0,0-1.682,4.541,19.89,19.89,0,0,0-.206,3.757c0,.639-.01,1.278.007,1.916a.991.991,0,0,0,1.065,1.057c.618.015,1.236,0,1.853.006h.385" transform="translate(264.371 8935.447)"></path><path id="Path_450" data-name="Path 450" d="M44.184,29.4V28.028h8.8c0,.4.01.807-.011,1.207,0,.06-.144.154-.231.162-.422.04-.851.025-1.269.092a.752.752,0,0,0-.658,1.023,2.977,2.977,0,0,0,.256.683q1.839,3.429,3.694,6.851c.031.056.065.108.126.208.094-.179.176-.328.254-.48.994-1.986,1.993-3.97,2.977-5.962A2.98,2.98,0,0,0,58.384,31a1.142,1.142,0,0,0-.753-1.323,3.94,3.94,0,0,0-.7-.2c-.228-.046-.461-.058-.714-.087V28.027h6.351v1.394c-1.264.025-1.878.851-2.386,1.887-1.9,3.875-3.836,7.732-5.751,11.6a.513.513,0,0,1-.478.31,1.063,1.063,0,0,1-1.215-.707c-2.071-3.873-4.183-7.724-6.284-11.581-.126-.233-.268-.458-.4-.689a1.554,1.554,0,0,0-1.5-.839c-.114.006-.228,0-.364,0" transform="translate(255.268 8935.526)"></path><path id="Path_451" data-name="Path 451" d="M39.75,25.773a2.6,2.6,0,1,1,2.662,2.584,2.587,2.587,0,0,1-2.662-2.584" transform="translate(253.543 8933.632)"></path><path id="Path_452" data-name="Path 452" d="M69.75,8.543a2.6,2.6,0,1,1-2.58-2.607,2.588,2.588,0,0,1,2.58,2.607" transform="translate(263.186 8926.938)"></path></g></svg> 