<?xml version="1.0" encoding="UTF-8"?> <svg xmlns="http://www.w3.org/2000/svg" width="117.208" height="57.217" viewBox="0 0 117.208 57.217"><g id="Group_573" data-name="Group 573" transform="translate(-1084.792 -8931.162)"><path id="Path_469" data-name="Path 469" d="M643.371,61c-2.577,0-4.239-1.993-4.239-4.962,0-2.989,1.661-4.962,4.239-4.962,2.618,0,4.259,1.993,4.259,4.962S645.989,61,643.371,61m0-10.784c-3.243,0-5.352,2.364-5.352,5.841,0,3.458,2.09,5.841,5.313,5.841,3.244,0,5.374-2.383,5.374-5.841.018-3.477-2.112-5.841-5.336-5.841m-8.478-3.105,3.244-.254v-.683h-7.678v.683l3.262.215v5.977h-8.614V47.075l3.262-.215v-.683h-7.675v.683l3.222.254v13.44l-3.222.214v.685h7.675v-.685l-3.262-.214v-6.6h8.614v6.6l-3.262.214v.685h7.678v-.685l-3.244-.214ZM625.087,5.7h4.9a3.257,3.257,0,0,1,3.5,3.477c0,2.109-1.153,3.693-3.322,3.693h-5.079Zm3.419,13.694-3.419-.215v-5.43h5.237c2.733,0,4.336-1.954,4.336-4.552a4.148,4.148,0,0,0-4.434-4.376h-9.532V5.5l3.2.254V19.2l-3.2.215V20.1h7.813ZM648.783,40.12v.644h6.251v-.625l-2.519-.215V33.146a5.127,5.127,0,0,1,4.238-2.657,2.586,2.586,0,0,1,2.716,2.891V39.9l-2.559.215v.625h6.035V40.1l-2.362-.215V33.262c0-2.011-.976-3.73-3.6-3.73a5.494,5.494,0,0,0-4.491,2.5V29.668l-.628-.175a4.518,4.518,0,0,1-3.536,1.446v.468a4.919,4.919,0,0,0,3.068-.274V39.9Zm-23.7-13.733h5.138a3.25,3.25,0,0,1,3.575,3.359,3.233,3.233,0,0,1-3.536,3.5h-5.2V26.387Zm3.419,13.694-3.419-.215V34.182h4.552l3.223,6.6h4.043V40.1l-3.282-.332-2.734-5.587a4.162,4.162,0,0,0,4.1-4.415,4.1,4.1,0,0,0-4.376-4.259h-9.924v.683l3.222.235V39.846l-3.222.215v.683h7.813ZM705,19.218V12.6c0-2.012-.976-3.77-3.6-3.77a5.4,5.4,0,0,0-4.454,2.521V8.982l-.625-.176a4.452,4.452,0,0,1-3.536,1.446v.489a4.933,4.933,0,0,0,3.066-.274v8.771l-2.637.214V20.1h6.252v-.626l-2.521-.214V12.479a5.143,5.143,0,0,1,4.22-2.677,2.607,2.607,0,0,1,2.715,2.93v6.526l-2.559.214V20.1h6.038v-.646ZM668.689,55.454c-1.444-.351-3.243-.84-3.243-2.4,0-1.036.742-1.973,2.657-1.973a3.517,3.517,0,0,1,3.38,2.15l.7,1.23.549-.118-.705-4.18h-.586L671.423,52a3.864,3.864,0,0,0-3.477-1.8c-2.207,0-3.536,1.23-3.536,2.852,0,2.228,2.541,2.93,4.063,3.32,2.071.528,3.5,1.036,3.5,2.54,0,1.329-1.133,2.129-2.833,2.129-1.758,0-2.87-.879-3.965-2.657l-.685-1.133-.565.118.722,4.316h.625l-.058-2.071a4.471,4.471,0,0,0,4.063,2.286c2.246,0,3.73-1.192,3.73-3.047-.019-2.169-1.894-2.775-4.316-3.4m36.276-22.27c0-2.012-.84-3.652-3.184-3.652a4.8,4.8,0,0,0-4.122,2.4,2.839,2.839,0,0,0-3.029-2.4,5.035,5.035,0,0,0-4.043,2.441V29.668l-.626-.175a4.574,4.574,0,0,1-3.536,1.446v.468a4.934,4.934,0,0,0,3.068-.293V39.9l-2.637.215v.644h5.762v-.625l-2.03-.215V33.048a4.576,4.576,0,0,1,3.75-2.54c1.76,0,2.344,1.192,2.344,3.008v6.427l-2.168.215v.625h5.449v-.625l-2.187-.215V33.4a3.643,3.643,0,0,0-.019-.45,4.333,4.333,0,0,1,3.712-2.441c1.778,0,2.364,1.211,2.364,2.989v6.446l-2.012.215v.625h5.529v-.625l-2.4-.235v-6.74ZM685.939,19.451V20.1h6.289v-.646l-2.559-.214V9.021l-.625-.2a4.659,4.659,0,0,1-3.554,1.446v.489a4.95,4.95,0,0,0,3.066-.293v8.791ZM675.78,54.986c.332-2.364,1.836-3.888,4.005-3.888a3.619,3.619,0,0,1,3.672,3.888Zm4.025-4.768c-3.107,0-5.158,2.383-5.158,5.841s2.07,5.841,5.372,5.841c2.4,0,3.809-1.133,4.356-2.832l-.683-.254A3.488,3.488,0,0,1,680.156,61c-2.775,0-4.415-1.914-4.415-4.943v-.214h8.752c.019-.157.019-.508.019-.7a4.63,4.63,0,0,0-4.708-4.923m.78-9.9c-2.577,0-4.238-1.993-4.238-4.962,0-2.99,1.661-4.943,4.238-4.943,2.6,0,4.259,1.972,4.259,4.943.019,2.969-1.64,4.962-4.259,4.962m0-10.784c-3.243,0-5.352,2.344-5.352,5.822,0,3.457,2.09,5.841,5.313,5.841,3.244,0,5.373-2.384,5.373-5.841.019-3.477-2.091-5.822-5.334-5.822M660.8,50.337l-.625-.176a4.659,4.659,0,0,1-3.555,1.446v.489a4.888,4.888,0,0,0,3.047-.274V58.4a5.213,5.213,0,0,1-4.24,2.559,2.59,2.59,0,0,1-2.7-2.891V50.356l-.6-.176a3.992,3.992,0,0,1-3.244,1.446v.489a4.489,4.489,0,0,0,2.736-.2V58.15c0,1.993.957,3.77,3.615,3.77a5.4,5.4,0,0,0,4.433-2.461l.019,2.226.058.04,3.439-.333v-.586h-2.422V50.337ZM673.24,10.525v6.251c0,1.993.958,3.77,3.615,3.77a5.406,5.406,0,0,0,4.434-2.461l.019,2.226.058.039,3.439-.332v-.586h-2.422V8.982l-.626-.176a4.66,4.66,0,0,1-3.555,1.446v.489a4.89,4.89,0,0,0,3.048-.274v6.563a5.215,5.215,0,0,1-4.24,2.559,2.59,2.59,0,0,1-2.7-2.891V8.982l-.586-.176a3.992,3.992,0,0,1-3.243,1.446v.489a4.684,4.684,0,0,0,2.754-.215m-24.692-.058v8.771l-2.637.214V20.1h6.251v-.626l-2.519-.214V12.479A5.145,5.145,0,0,1,653.881,9.8a2.606,2.606,0,0,1,2.715,2.93v6.526l-2.558.214V20.1h6.035v-.646l-2.364-.214V12.615c0-2.012-.976-3.77-3.594-3.77a5.445,5.445,0,0,0-4.492,2.521V8.982L649,8.805a4.463,4.463,0,0,1-3.537,1.446v.489a5.3,5.3,0,0,0,3.086-.274m23.228,27.368a3.667,3.667,0,0,1-3.615,2.482c-2.5,0-3.986-1.915-3.986-4.923,0-2.95,1.662-4.981,4.2-4.981a3.723,3.723,0,0,1,3.4,1.993Zm-3.537-8.3c-3.086,0-5.176,2.4-5.176,5.9,0,3.439,1.836,5.763,4.9,5.763a4.2,4.2,0,0,0,3.829-2.13l.019,1.9.06.039,3.5-.332v-.605h-2.5V24.12l-.606-.175a4.22,4.22,0,0,1-3.516,1.875v.489a4.092,4.092,0,0,0,3.008-.508v5.451a4.141,4.141,0,0,0-3.516-1.719m-4.434-9.67,2.208.194c2.577.235,3.379.978,3.379,1.954,0,1.348-1.368,2.383-4.122,2.383-2.48,0-3.887-1-3.887-2.325,0-.976.84-1.933,2.422-2.207m-1.815-6.877a3.31,3.31,0,0,1,6.62.039,3.171,3.171,0,0,1-3.34,3.223,3.234,3.234,0,0,1-3.28-3.262m-1.623,9.163c0,1.7,1.623,3.125,4.885,3.125,3.418,0,5.215-1.446,5.215-3.34,0-2.109-2.462-2.657-4.865-2.852-1.8-.156-3.438-.215-3.438-1.114,0-.449.45-.86,2.4-.86h.722a4.165,4.165,0,0,0,3.281-6.953c.157-2.012,1.915-1.017,1.915-2.051a.618.618,0,0,0-.7-.665,2.195,2.195,0,0,0-1.915,2.13,4.259,4.259,0,0,0-2.422-.7,4.116,4.116,0,0,0-4.433,4.1,3.921,3.921,0,0,0,2.05,3.575c-1.193.118-1.837.743-1.837,1.583,0,.586.372,1.172,1.368,1.5a2.718,2.718,0,0,0-2.228,2.521M644.661,38.517a5.641,5.641,0,0,1-3.927,1.8c-1.308,0-2.383-.626-2.383-1.876,0-1.562,1.348-3.027,6.31-3.126Zm-7.4-.078c0,1.661,1.29,2.775,3.283,2.775a5.992,5.992,0,0,0,4.18-1.8,1.717,1.717,0,0,0,1.836,1.465,1.83,1.83,0,0,0,1.935-1.7l-.507-.215c-.178.683-.51,1.055-1.114,1.055-.782,0-1.135-.392-1.135-1.818V33.4c0-2.208-.9-3.848-3.848-3.848a4.7,4.7,0,0,0-3.4,1.133,2.023,2.023,0,0,0-.762,1.367.631.631,0,0,0,.664.646c.528,0,.586-.508.9-1.094.374-.664.958-1.172,2.52-1.172a2.569,2.569,0,0,1,2.833,2.852v1.23c-4.708.039-7.385,1.407-7.385,3.926M689.083,6.618a.958.958,0,1,0,0-1.915.958.958,0,0,0,0,1.915M640.128,9.723A3.629,3.629,0,0,1,643.8,13.61h-7.657c.313-2.344,1.818-3.887,3.984-3.887m.217,10.8c2.4,0,3.808-1.133,4.355-2.833l-.683-.254a3.489,3.489,0,0,1-3.534,2.189c-2.8,0-4.417-1.915-4.417-4.943V14.47h8.771c.019-.156.019-.507.019-.7a4.635,4.635,0,0,0-4.708-4.942c-3.105,0-5.176,2.383-5.176,5.841s2.09,5.86,5.373,5.86" transform="translate(479.375 8926.459)"></path><path id="Path_470" data-name="Path 470" d="M609.692,4.76V61.43h1.172V4.76Z" transform="translate(475.1 8926.481)"></path><path id="Path_471" data-name="Path 471" d="M693.248,4.76V61.43h1.172V4.76Z" transform="translate(507.58 8926.481)"></path></g></svg> 