<?xml version="1.0" encoding="UTF-8"?> <svg xmlns="http://www.w3.org/2000/svg" width="147.67" height="24.021" viewBox="0 0 147.67 24.021"><g id="Group_575" data-name="Group 575" transform="translate(-448.819 -9084.25)"><path id="Path_472" data-name="Path 472" d="M183.144,129.361h2.8v.4h-2.361v1.321h2.108v.4h-2.108v1.36h2.39v.4h-2.827Z" transform="translate(309.285 8974.918)" fill="#191918"></path><path id="Path_473" data-name="Path 473" d="M186.019,132.686l.272-.321a1.859,1.859,0,0,0,1.33.544c.515,0,.855-.272.855-.661,0-.36-.185-.564-.972-.737s-1.3-.476-1.3-1.118a1.146,1.146,0,0,1,1.223-1.064c.017,0,.033,0,.049.006a2.028,2.028,0,0,1,1.361.475l-.253.34a1.721,1.721,0,0,0-1.118-.418c-.5,0-.825.272-.825.622,0,.369.194.574,1.048.758s1.264.5,1.264,1.1c0,.661-.554,1.089-1.322,1.089a2.3,2.3,0,0,1-1.612-.612" transform="translate(310.404 8974.904)" fill="#191918"></path><path id="Path_474" data-name="Path 474" d="M190.193,129.769H188.9v-.408h3.04v.408h-1.3v3.468h-.447Z" transform="translate(311.523 8974.918)" fill="#191918"></path><rect id="Rectangle_983" data-name="Rectangle 983" width="0.515" height="0.583" transform="translate(503.885 9107.571)" fill="#191918"></rect><path id="Path_475" data-name="Path 475" d="M194.449,129.361h.437v3.468h2.176v.408h-2.614Z" transform="translate(313.68 8974.918)" fill="#191918"></path><path id="Path_476" data-name="Path 476" d="M196.954,131.327h0a1.942,1.942,0,0,1,1.883-2h.06a1.943,1.943,0,0,1,1.943,1.943v.049a1.943,1.943,0,0,1-1.873,2.009H198.9a1.943,1.943,0,0,1-1.944-1.941c0-.021,0-.04,0-.06m3.487,0h0a1.535,1.535,0,0,0-1.476-1.591h-.049a1.524,1.524,0,0,0-1.517,1.533v.05a1.546,1.546,0,0,0,1.486,1.6h.04a1.514,1.514,0,0,0,1.517-1.514c0-.026,0-.053,0-.079" transform="translate(314.654 8974.904)" fill="#191918"></path><path id="Path_477" data-name="Path 477" d="M200.857,129.361h.408l2.439,3.109v-3.109h.428v3.886h-.35l-2.5-3.176v3.176h-.428Z" transform="translate(316.172 8974.918)" fill="#191918"></path><path id="Path_478" data-name="Path 478" d="M204.522,129.362h1.342a1.943,1.943,0,0,1,2.055,1.823c0,.04,0,.079,0,.119a1.943,1.943,0,0,1-1.94,1.947c-.04,0-.081,0-.119,0h-1.342Zm.437.408v3.061h.9a1.506,1.506,0,0,0,1.608-1.4q0-.06,0-.121a1.508,1.508,0,0,0-1.483-1.529q-.065,0-.129,0Z" transform="translate(317.596 8974.917)" fill="#191918"></path><path id="Path_479" data-name="Path 479" d="M207.916,131.327h0a1.942,1.942,0,0,1,1.883-2h.06a1.943,1.943,0,0,1,1.943,1.943v.049a1.943,1.943,0,0,1-1.873,2.009h-.069a1.943,1.943,0,0,1-1.944-1.941c0-.021,0-.04,0-.06m3.5,0h0a1.535,1.535,0,0,0-1.476-1.591h-.058a1.524,1.524,0,0,0-1.516,1.533v.05a1.544,1.544,0,0,0,1.486,1.6h.05a1.525,1.525,0,0,0,1.517-1.533c0-.019,0-.04,0-.06" transform="translate(318.916 8974.904)" fill="#191918"></path><path id="Path_480" data-name="Path 480" d="M211.819,129.361h.408l2.448,3.109v-3.109h.418v3.886h-.34l-2.507-3.176v3.176h-.428Z" transform="translate(320.434 8974.918)" fill="#191918"></path><path id="Path_481" data-name="Path 481" d="M217.51,129.8l-.729.224-.107-.35.972-.331h.321v3.886h-.437Z" transform="translate(322.32 8974.909)" fill="#191918"></path><path id="Path_482" data-name="Path 482" d="M218.717,132.216h0a1.029,1.029,0,0,1,.8-.971.972.972,0,0,1-.661-.894,1.36,1.36,0,0,1,2.643,0,.972.972,0,0,1-.661.894,1.049,1.049,0,0,1,.8.971c0,.661-.632,1.1-1.458,1.1s-1.457-.457-1.457-1.1m2.468,0h0c0-.428-.447-.728-.972-.728s-.971.3-.971.728c0,.379.369.719.971.719s.972-.34.972-.729Zm-.126-1.816h0c0-.389-.379-.671-.885-.671s-.883.282-.883.671a.9.9,0,0,0,1.768,0" transform="translate(323.115 8974.899)" fill="#191918"></path><path id="Path_483" data-name="Path 483" d="M223.775,129.759h-2.128v-.4h2.633v.331l-1.758,3.545h-.5Z" transform="translate(324.254 8974.918)" fill="#191918"></path><path id="Path_484" data-name="Path 484" d="M224.328,131.319h0a1.662,1.662,0,1,1,3.265,0,1.809,1.809,0,0,1-1.551,2.032l-.081.008a1.786,1.786,0,0,1-1.646-1.919q0-.06.012-.121m2.818,0h0c0-.846-.467-1.6-1.185-1.6s-1.186.747-1.186,1.593.467,1.612,1.2,1.612,1.175-.757,1.175-1.6" transform="translate(325.285 8974.912)" fill="#191918"></path><path id="Path_485" data-name="Path 485" d="M159.512,121.828a13.161,13.161,0,0,1-4.119.428v2.672a3.284,3.284,0,0,0,.233,1.583,1.943,1.943,0,0,0,1.632.729v.175h-5.449v-.175a2.257,2.257,0,0,0,1.428-.612,4.091,4.091,0,0,0,.272-1.865v-6.888a4.18,4.18,0,0,0-.292-2.059,2.585,2.585,0,0,0-1.476-.525v-.165H156.6a7.2,7.2,0,0,1,3.623.651,3.283,3.283,0,0,1,1.729,2.915,3.379,3.379,0,0,1-2.439,3.137m-1.233-6.159a4.2,4.2,0,0,0-1.826-.331,6.584,6.584,0,0,0-.826.068,4.159,4.159,0,0,0-.194,1.312v5.294a7.664,7.664,0,0,0,2.448-.272,3.243,3.243,0,0,0,2.215-3.166,3.145,3.145,0,0,0-1.816-2.905" transform="translate(297.078 8969.375)" fill="#191918"></path><path id="Path_486" data-name="Path 486" d="M171.116,127.368H160.7v-.136a2.193,2.193,0,0,0,1.389-.642,4.113,4.113,0,0,0,.311-1.836v-6.888a4.33,4.33,0,0,0-.292-2.089,1.881,1.881,0,0,0-1.223-.5v-.164h9.393l1.157,2.807-.175.078a8.444,8.444,0,0,0-2.6-2.312,9.154,9.154,0,0,0-2.993-.34,8.373,8.373,0,0,0-1.292.087c0,.36-.087,1.6-.087,3.1v2.429a13.708,13.708,0,0,0,2.147-.136c1.379-.321,1.7-1.069,1.943-2.351h.282v5.363h-.2a4.862,4.862,0,0,0-.971-1.944,2.435,2.435,0,0,0-1.555-.572h-1.544v3.682a4.014,4.014,0,0,0,.262,1.748c.2.311,1.087.447,1.943.447a13.472,13.472,0,0,0,1.69-.107c1.429-.185,2.419-.971,3.537-2.915h.194Z" transform="translate(300.563 8969.381)" fill="#191918"></path><path id="Path_487" data-name="Path 487" d="M182.385,116.341a10.559,10.559,0,0,0-.214,2.419c0,.971-.087,2.341-.087,3.886v4.644a.185.185,0,0,1-.174.194h0a.5.5,0,0,1-.3-.2c-3.886-4.44-6.149-7.258-9.228-10.686v7.131a7.87,7.87,0,0,0,.251,2.6c.262.515.768.749,1.691.865v.175h-4.168v-.136a1.939,1.939,0,0,0,1.457-.749,6.122,6.122,0,0,0,.408-2.719c0-.972.068-2.351.068-3.887v-2.914a1.79,1.79,0,0,0-1.818-1.682v-.164h3.459l8.063,9.423v-5.78a8.806,8.806,0,0,0-.165-2.283c-.224-.632-.767-1.04-1.855-1.2v-.164h4.216v.164a1.76,1.76,0,0,0-1.6,1.06" transform="translate(304.236 8969.381)" fill="#191918"></path><path id="Path_488" data-name="Path 488" d="M190.054,127.368v-.136a2.309,2.309,0,0,0,1.583-.661,5.73,5.73,0,0,0,.136-1.418v-3.886H185.1v3.662a3.893,3.893,0,0,0,.175,1.6,1.852,1.852,0,0,0,1.312.7v.175h-5.023v-.175a2.37,2.37,0,0,0,1.408-.622,4.726,4.726,0,0,0,.243-1.855v-6.888a4.249,4.249,0,0,0-.253-1.943,2,2,0,0,0-1.35-.642v-.164h5.072v.164c-.642.087-1.516.311-1.546,1.361-.049,1.583,0,3.886,0,4.323h6.723v-3.74a2.9,2.9,0,0,0-.224-1.244,1.654,1.654,0,0,0-1.515-.7v-.164h5.13v.164a1.77,1.77,0,0,0-1.38.749,5.726,5.726,0,0,0-.175,1.875v7.151a3.9,3.9,0,0,0,.156,1.476,1.777,1.777,0,0,0,1.41.661v.175Z" transform="translate(308.672 8969.381)" fill="#191918"></path><path id="Path_489" data-name="Path 489" d="M200.4,127.436V127.3c.156,0,1.194-.136,1.194-.776a22.412,22.412,0,0,0-1.223-3.79h-4.527c-.34.855-.671,1.623-.972,2.419a4.455,4.455,0,0,0-.358,1.293c0,.6.815.747,1.408.815v.175h-3.652V127.3a2.2,2.2,0,0,0,1.155-.494,8.107,8.107,0,0,0,1.05-1.876c.971-2.147,2.439-5.6,3.507-8.15l-.165-.369a3.451,3.451,0,0,0,1.5-1.466h.136c1.41,3.779,2.507,6.694,3.576,9.57a16.343,16.343,0,0,0,.708,1.661,1.944,1.944,0,0,0,1.643,1.058v.2Zm-2.234-10.317c-.262.612-1.108,2.594-2.186,5.266h4.245c-.758-2.03-1.641-4.245-2.059-5.266" transform="translate(312.832 8969.313)" fill="#191918"></path><path id="Path_490" data-name="Path 490" d="M213.5,127.368H202.571v-.136a2.49,2.49,0,0,0,1.5-.642,4.045,4.045,0,0,0,.331-1.836v-6.869a4.052,4.052,0,0,0-.253-1.943,2.275,2.275,0,0,0-1.447-.661v-.164h5.42v.164c-.611.087-1.748.272-1.787,1.5v8.073a4.364,4.364,0,0,0,.224,1.768,3.651,3.651,0,0,0,2.069.467,11.344,11.344,0,0,0,2.487-.262c1.807-.486,2.312-1.68,2.915-3.04h.175Z" transform="translate(316.838 8969.381)" fill="#191918"></path><path id="Path_491" data-name="Path 491" d="M211.4,127.368v-.136a2.213,2.213,0,0,0,1.408-.661,4.125,4.125,0,0,0,.263-1.855v-6.849a4.231,4.231,0,0,0-.253-1.943,2.021,2.021,0,0,0-1.369-.642v-.164h5.091v.164a1.732,1.732,0,0,0-1.4.729,4.312,4.312,0,0,0-.185,1.573v7.423a3.893,3.893,0,0,0,.175,1.6,2.174,2.174,0,0,0,1.448.622v.175Z" transform="translate(320.27 8969.381)" fill="#191918"></path><path id="Path_492" data-name="Path 492" d="M228.43,122.261a3.39,3.39,0,0,0-.156,1.369v2.478a10.369,10.369,0,0,1-4.858,1.448c-4.313,0-6.869-2.38-6.869-6.258a6.508,6.508,0,0,1,1.943-4.586,6.74,6.74,0,0,1,4.858-1.768,7.93,7.93,0,0,1,4.265,1.137,3.9,3.9,0,0,0,.564-.69h.156V119.1h-.2a5.824,5.824,0,0,0-1.36-2.573,4.524,4.524,0,0,0-3.245-1.293c-3.011,0-4.858,2.915-4.858,6.091,0,3.537,1.75,5.956,4.78,5.956a3.049,3.049,0,0,0,2.643-1.186,5.02,5.02,0,0,0,.272-1.943,2.763,2.763,0,0,0-.408-1.855,1.943,1.943,0,0,0-1.379-.525V121.6h4.954v.175a1.593,1.593,0,0,0-1.1.486" transform="translate(322.271 8969.312)" fill="#191918"></path><path id="Path_493" data-name="Path 493" d="M233.906,127.534a6.206,6.206,0,0,1-6.352-6.059c0-.065,0-.132,0-.2,0-3.886,3.012-6.285,6.567-6.285a6.032,6.032,0,0,1,6.2,5.863q.006.177,0,.354a6.314,6.314,0,0,1-6.3,6.326h-.107m0-12.25c-2.915,0-4.255,3.119-4.255,6.042.01,3.041,1.428,5.956,4.343,5.956s4.236-3.177,4.236-6.024-1.418-5.974-4.313-5.974Z" transform="translate(326.549 8969.331)" fill="#191918"></path><path id="Path_494" data-name="Path 494" d="M249.869,116.341a10.479,10.479,0,0,0-.224,2.419c0,.971-.078,2.341-.078,3.886v4.644a.174.174,0,0,1-.154.193H249.4a.54.54,0,0,1-.311-.2c-3.886-4.44-6.14-7.258-9.218-10.686v7.131a7.617,7.617,0,0,0,.251,2.6c.253.515.768.749,1.682.865v.175h-4.187v-.136a1.941,1.941,0,0,0,1.466-.749,6.122,6.122,0,0,0,.408-2.719c0-.972.068-2.351.068-3.887v-2.914a1.79,1.79,0,0,0-1.808-1.682v-.164h3.45l8.073,9.423v-5.78a8.3,8.3,0,0,0-.175-2.283c-.224-.632-.767-1.04-1.855-1.2v-.164h4.206v.164a1.761,1.761,0,0,0-1.583,1.06" transform="translate(330.463 8969.381)" fill="#191918"></path><path id="Path_495" data-name="Path 495" d="M249.121,118.312v-.165c.807-.156,1.262-.476,1.262-1.194a1.155,1.155,0,0,0-.107-.5,1.161,1.161,0,0,1-.66.2.7.7,0,0,1-.7-.7v-.01a.973.973,0,0,1,1.06-.875,1.333,1.333,0,0,1,1.312,1.35v.031a1.942,1.942,0,0,1-2.016,1.866c-.05,0-.1-.006-.15-.011" transform="translate(334.854 8969.363)" fill="#191918"></path><path id="Path_496" data-name="Path 496" d="M255.978,127.577a6.25,6.25,0,0,1-3.255-.768c-.068,0-.339.34-.524.593h-.156v-3.38h.165a5.4,5.4,0,0,0,2.118,2.816,4.064,4.064,0,0,0,1.68.467,2.555,2.555,0,0,0,2.812-2.268,2.492,2.492,0,0,0,.015-.287c0-1.272-.875-1.836-1.943-2.244s-1.478-.494-2.5-.883a3.449,3.449,0,0,1-2.312-3.08c0-2.429,1.943-3.555,4.08-3.555a4.672,4.672,0,0,1,2.915.815,2.153,2.153,0,0,0,.514-.611h.185v3.137h-.185c-.562-1.505-1.69-3.079-3.458-3.079a2.339,2.339,0,0,0-2.516,2.4,2.47,2.47,0,0,0,1.943,2.322c.924.35,1.544.525,2.429.846a3.324,3.324,0,0,1,2.429,3.255c0,2.176-1.855,3.507-4.44,3.507" transform="translate(336.07 8969.327)" fill="#191918"></path></g></svg> 