<?xml version="1.0" encoding="UTF-8"?> <svg xmlns="http://www.w3.org/2000/svg" width="89.341" height="16.721" viewBox="0 0 89.341 16.721"><g id="Group_574" data-name="Group 574" transform="translate(-255.973 -9087.224)"><path id="Path_611" data-name="Path 611" d="M87.238,120.5h0v-3.369H83.43v8.512a1.763,1.763,0,0,1-.019.319,4.391,4.391,0,0,1-1.635,3.03,4.082,4.082,0,0,1-2.591,1c-1.057.04-2.133.021-3.09.021h-.437a4.482,4.482,0,0,1-4.466-4.486c-.019-1.675,0-3.369,0-5.023v-3.389H67.4v8.352a4.489,4.489,0,0,1-.857,2.671,4.278,4.278,0,0,1-3.429,1.835c-.658.019-1.375.019-1.993.019H59.909a5.7,5.7,0,0,1-1.735-.239,4.411,4.411,0,0,1-2.451-2.033,4.651,4.651,0,0,1-.578-2.412c.019-1.635,0-3.308,0-4.923v-3.289H51.357v8.591a7.631,7.631,0,0,0,.539,2.79,8.2,8.2,0,0,0,3.627,4.226,6.787,6.787,0,0,0,3.011,1c.778.06,1.614.081,2.73.081h.4a20.454,20.454,0,0,0,2.453-.1,7.906,7.906,0,0,0,5.183-2.911,7.947,7.947,0,0,0,5.94,2.99c.5.021,1.037.04,1.694.04.479,0,.957,0,1.436-.019h.039c.3,0,.6,0,.9-.021a5.457,5.457,0,0,0,1.257-.139,8.241,8.241,0,0,0,4.8-2.871,8.053,8.053,0,0,0,1.893-5.183c0-1.675,0-3.389-.019-5.063" transform="translate(258.057 8970.148)"></path><path id="Path_612" data-name="Path 612" d="M58.122,125.189a7.587,7.587,0,0,0-1.355-4.365A8.068,8.068,0,0,0,49.83,117.1c-3.469-.019-7.156-.019-11.94,0a7.841,7.841,0,0,0-1.714.181,7.933,7.933,0,0,0-5.4,4.026,8.168,8.168,0,0,0,.558,9.11,7.773,7.773,0,0,0,6.5,3.348c1.773.019,3.668.019,6.02.019h7.555l1-.039v-3.727H37.99a4.179,4.179,0,0,1-1.635-.3,4.428,4.428,0,0,1-2.732-3.15,4.626,4.626,0,0,1,.121-2.651,4.5,4.5,0,0,1,4.265-3.009H49.83a4.489,4.489,0,0,1,4.505,4.486V133.8h3.727l.06-.957v-7.655" transform="translate(249.617 8970.144)"></path><path id="Path_613" data-name="Path 613" d="M21.028,117.111a8.218,8.218,0,0,0-6.059,2.771A7.829,7.829,0,0,0,12.9,125.1c-.021,1.773-.021,3.587-.021,5.362v2.212c0,.1.021.179.021.239l.119.878h3.668v-8.471a4.173,4.173,0,0,1,1.057-2.811,4.406,4.406,0,0,1,3.448-1.575H35.441v-3.847H30.835c-3.229,0-6.538,0-9.807.019" transform="translate(243.098 8970.148)"></path></g></svg> 