<?xml version="1.0" encoding="UTF-8"?> <svg xmlns="http://www.w3.org/2000/svg" width="117.803" height="45.862" viewBox="0 0 117.803 45.862"><g id="Group_583" data-name="Group 583" transform="translate(-1083.301 -9210.072)"><path id="Path_598" data-name="Path 598" d="M608.875,205.625h6.819q.737,6.866,1.473,13.7l.054.006q.823-6.841,1.65-13.694h6.362v21.978h-4.312V213.474h-.054q-.806,7.074-1.615,14.157h-4.12q-.81-7.137-1.618-14.253l-.043,0v14.2a1.178,1.178,0,0,1-.171.026q-2.154,0-4.308,0a.836.836,0,0,1-.117-.015Z" transform="translate(474.781 9004.564)" fill-rule="evenodd"></path><path id="Path_599" data-name="Path 599" d="M667.368,227.618H658.9c-.175-1.2-.35-2.4-.526-3.6h-3.025c-.161,1.205-.322,2.4-.482,3.6h-4.709c.13-.708.258-1.405.382-2.076a11.42,11.42,0,0,1-.774.926,4.362,4.362,0,0,1-2.4,1.128,10.233,10.233,0,0,1-3.644.042,3.848,3.848,0,0,1-3.153-2.872,12.891,12.891,0,0,1-.426-3.916h4.227c0,.122,0,.219,0,.318.025.487.042.975.082,1.461a1.364,1.364,0,0,0,.133.425,1,1,0,0,0,1.785.206,1.768,1.768,0,0,0,.328-1.432,3.5,3.5,0,0,0-1.5-2.294,17.837,17.837,0,0,1-2.768-2.321,7.948,7.948,0,0,1-2.212-4.377,9.275,9.275,0,0,1,.218-3.727,4.578,4.578,0,0,1,1.112-1.787,5.1,5.1,0,0,1,4.248-1.661,7.178,7.178,0,0,1,2,.318,3.761,3.761,0,0,1,2.458,2.375,10.083,10.083,0,0,1,.493,3.675h-4.12c-.006-.094-.011-.193-.017-.292a11.577,11.577,0,0,0-.086-1.246.946.946,0,0,0-1.089-.85,1.025,1.025,0,0,0-.893.982,3.8,3.8,0,0,0,1.048,2.89,13.044,13.044,0,0,0,2.173,1.818,11.241,11.241,0,0,1,2.4,2.164,5.65,5.65,0,0,1,1.157,3.1,1.5,1.5,0,0,0,.075.393q1.433-7.651,2.869-15.321h.224q2.425,0,4.852,0c.161,0,.239.022.275.217q.742,4.135,1.505,8.269.842,4.585,1.683,9.171c.1.555.2,1.112.346,1.671q1.806-9.645,3.615-19.308h5.316q2,10.959,4.012,21.942H671.4q-.125-.852-.248-1.7-.125-.867-.247-1.732c-.015-.106-.036-.19-.182-.189-.924.006-1.847,0-2.771,0a.615.615,0,0,0-.1.024c-.16,1.193-.319,2.386-.482,3.593m2.064-17.076-.057,0q-.513,4.364-1.028,8.738h2.047c-.321-2.925-.642-5.833-.962-8.742m-11.54,8.743q-.483-4.383-.963-8.738h-.058c-.341,2.908-.683,5.815-1.026,8.737Z" transform="translate(486.93 9004.574)" fill-rule="evenodd"></path><path id="Path_600" data-name="Path 600" d="M686.08,213.739h-4.369c0-.242.005-.468,0-.694-.026-.819-.051-1.637-.093-2.455a1.588,1.588,0,0,0-.136-.5.73.73,0,0,0-.75-.533c-.433.017-.708.14-.81.549a7.749,7.749,0,0,0-.279,1.739c-.042,2.736-.061,5.473-.043,8.21.006.91.136,1.819.222,2.727a1.66,1.66,0,0,0,.147.472.783.783,0,0,0,.786.5.717.717,0,0,0,.686-.49,4.661,4.661,0,0,0,.318-1.732c.033-.939.033-1.878.047-2.815,0-.078.007-.154.011-.246h4.324c.014.024.029.038.029.051a18.467,18.467,0,0,1-.347,4.819,6.99,6.99,0,0,1-1.112,2.534,4.6,4.6,0,0,1-3.266,1.871,8.1,8.1,0,0,1-2.773-.128,4.042,4.042,0,0,1-3.115-2.8,10.222,10.222,0,0,1-.553-3.129q-.09-3.618-.088-7.238c0-1.187.1-2.375.151-3.582h-2.9V227.6h-4.526V210.855h-3.054V205.7h10.627v4.172l.05.007c.051-.2.1-.4.154-.593a4.441,4.441,0,0,1,4.083-3.622,8.585,8.585,0,0,1,3.194.143,4.049,4.049,0,0,1,3.123,3.362,14.474,14.474,0,0,1,.251,2.178c.042.785.01,1.573.01,2.393" transform="translate(496.439 9004.547)" fill-rule="evenodd"></path><path id="Path_601" data-name="Path 601" d="M635.083,216.927c-.135.846-.229,1.668-.4,2.472a9.127,9.127,0,0,1-1.539,3.648.531.531,0,0,0-.04.694c.69,1.219,1.357,2.451,2.033,3.68.04.074.075.15.125.249h-1.085c-1.151,0-2.3,0-3.455,0a.313.313,0,0,1-.323-.2c-.206-.4-.424-.789-.644-1.2a6.1,6.1,0,0,1-2.532,1.365,5.734,5.734,0,0,1-2.851.1,3.9,3.9,0,0,1-2.857-2.4,8.313,8.313,0,0,1,.347-7.531,6.928,6.928,0,0,1,1.823-2.058l.19-.149-.144-.236a9.359,9.359,0,0,1-1.372-3.368,6.458,6.458,0,0,1,.513-3.988,4.341,4.341,0,0,1,4.277-2.469,5.748,5.748,0,0,1,2.393.571,4.082,4.082,0,0,1,2.165,3.07,6.924,6.924,0,0,1-1.937,6.378c-.239.25-.469.51-.711.772l1.573,2.9a7.139,7.139,0,0,0,.555-2.316Zm-9.053,2.333a2.951,2.951,0,0,0-1.14,2.012,2.162,2.162,0,0,0,.451,1.686,1.177,1.177,0,0,0,1.014.458,2.779,2.779,0,0,0,1.462-.54c.115-.081.122-.156.054-.275-.207-.361-.4-.729-.606-1.094l-1.236-2.247m.872-6.36.107.018c.251-.378.522-.744.747-1.139a2.869,2.869,0,0,0,.4-1.58.95.95,0,0,0-.749-1.012,2.306,2.306,0,0,0-.793.018.788.788,0,0,0-.643.646,1.975,1.975,0,0,0,.089,1.232c.253.617.555,1.212.837,1.818" transform="translate(479.408 9004.531)" fill-rule="evenodd"></path><path id="Path_602" data-name="Path 602" d="M687.4,213.506v-7.838h4.5v21.9h-4.5V218.9c0-.3,0-.3-.312-.3h-1.843v8.975h-4.523v-21.9h4.505v7.835Z" transform="translate(502.713 9004.581)" fill-rule="evenodd"></path><path id="Path_603" data-name="Path 603" d="M637.979,218.437h4.355c.014.022.029.035.029.049a18.1,18.1,0,0,1-.465,5.3,6.421,6.421,0,0,1-1.107,2.279,4.523,4.523,0,0,1-3.137,1.7,7.76,7.76,0,0,1-2.954-.2,4.183,4.183,0,0,1-3.022-3.062,10.823,10.823,0,0,1-.474-2.834c-.056-1.733-.081-3.466-.1-5.2-.013-1.111-.017-2.223.017-3.334a16.049,16.049,0,0,1,.537-4.181,4.235,4.235,0,0,1,3.705-3.186,9.1,9.1,0,0,1,3.244.071,4.161,4.161,0,0,1,3.384,3.344,12.313,12.313,0,0,1,.289,2.933c0,.526,0,1.054,0,1.6h-4.4v-.261c0-.757.014-1.515-.017-2.271a4.324,4.324,0,0,0-.2-1.086.7.7,0,0,0-.774-.558.776.776,0,0,0-.822.579,7.027,7.027,0,0,0-.282,2.24c-.029,2.043-.053,4.086-.04,6.127.007,1.2.072,2.4.142,3.59a4.479,4.479,0,0,0,.231,1.08.767.767,0,0,0,.823.576.752.752,0,0,0,.705-.569,6.826,6.826,0,0,0,.313-2.282c.017-.733.008-1.466.011-2.2v-.237" transform="translate(483.42 9004.575)" fill-rule="evenodd"></path><rect id="Rectangle_1015" data-name="Rectangle 1015" width="4.897" height="21.909" transform="translate(1196.207 9210.243)"></rect><path id="Path_604" data-name="Path 604" d="M613.517,235.2V244.7h-4.9V222.739h7.057q.621,5.591,1.239,11.158l.04,0q.269-2.216.536-4.431t.551-4.456c.085-.7.171-1.391.248-2.089.014-.129.04-.2.192-.2q3.254.006,6.509,0a.682.682,0,0,1,.1.019V244.7h-4.76v-9.509l-.061-.006q-.535,4.75-1.072,9.513h-4.558q-.537-4.758-1.073-9.52l-.051.014m-4.347-11.91v20.863h3.815V229.984l.55-.026c.535,4.749,1.065,9.467,1.6,14.185h3.579c.533-4.736,1.064-9.454,1.6-14.19l.55.035v14.155h3.7v-20.85H618.8q-.81,6.637-1.622,13.272h-.524q-.737-6.655-1.472-13.278Z" transform="translate(474.682 9011.21)" fill-rule="evenodd"></path><path id="Path_605" data-name="Path 605" d="M665.6,222.739v21.978h-.265c-1.53,0-3.061,0-4.591.007-.218,0-.293-.074-.347-.272q-1.206-4.427-2.429-8.85a.436.436,0,0,0-.115-.212V244.7h-4.913V222.738c.074-.006.143-.014.211-.014,1.522,0,3.046,0,4.568,0a.247.247,0,0,1,.293.215q1.277,4.727,2.566,9.449a.418.418,0,0,0,.108.207v-9.852Zm-12.108.547v20.862H657.3V231.307c.189.522.333,1.05.479,1.578q1.519,5.518,3.036,11.035c.047.175.11.251.314.249,1.23-.012,2.461-.006,3.693-.006.075,0,.151-.008.225-.012V223.294h-3.811v13.493l-.039.007q-1.839-6.753-3.677-13.507Z" transform="translate(491.91 9011.21)" fill-rule="evenodd"></path><path id="Path_606" data-name="Path 606" d="M635.4,236.11v8.6H630.06V222.717h.272c2.1,0,4.2,0,6.3.013a8.238,8.238,0,0,1,2.332.328,4.124,4.124,0,0,1,2.9,3.025,11.487,11.487,0,0,1,.336,3.7,10.3,10.3,0,0,1-.247,1.843,2.938,2.938,0,0,1-1.868,2.133c-.037.015-.072.032-.107.049-.007,0-.01.012-.024.032a.3.3,0,0,0,.061.051,3.532,3.532,0,0,1,2.128,2.939,13.054,13.054,0,0,1,.135,1.789c.017,1.925.006,3.85.006,5.774v.3H636.6v-.3c0-1.869.01-3.74-.006-5.609a14.082,14.082,0,0,0-.129-1.741.932.932,0,0,0-.81-.918c-.073-.014-.151-.011-.257-.019m-4.781-12.825v20.866h4.247v-8.593c.24,0,.453-.015.664,0a1.4,1.4,0,0,1,1.422,1.186,6.421,6.421,0,0,1,.176,1.447c.022,1.9.011,3.8.014,5.7v.249h4.591c0-1.833.007-3.648,0-5.462a13.517,13.517,0,0,0-.1-1.626,3.246,3.246,0,0,0-1.076-2.194,4.094,4.094,0,0,0-1.776-.785c-.429-.1-.86-.19-1.29-.286.573-.128,1.141-.214,1.7-.329a2.675,2.675,0,0,0,2.289-2.13,8.294,8.294,0,0,0,.176-1.308,11.715,11.715,0,0,0-.3-3.73,3.523,3.523,0,0,0-2.593-2.708,7.721,7.721,0,0,0-1.837-.285c-2.058-.039-4.118-.022-6.177-.026-.037,0-.076.007-.126.011" transform="translate(483.018 9011.208)" fill-rule="evenodd"></path><path id="Path_607" data-name="Path 607" d="M627.013,227.715v1.6c0,.45.01.9-.006,1.348-.007.206.049.269.263.268,1.333-.01,2.666,0,4,0h.294v4.918h-4.536c-.005.1-.015.176-.015.251,0,1.08.006,2.161-.006,3.241,0,.221.075.258.272.257,1.491-.007,2.982,0,4.473,0h.3V244.7H621.673V222.735H631.9v4.98Zm4.358-4.424h-9.139v20.85h9.292v-4.012h-5.038V235.3H631v-3.838h-4.518v-4.3h4.886Z" transform="translate(479.756 9011.216)" fill-rule="evenodd"></path><path id="Path_608" data-name="Path 608" d="M645.305,239.589H650.1V244.7H639.81V222.738h5.5Zm-.557.546V223.289h-4.384v20.855h9.195v-4.009Z" transform="translate(486.807 9011.217)" fill-rule="evenodd"></path><path id="Path_609" data-name="Path 609" d="M647.956,222.732h5.488v21.961h-5.488Zm.557,21.409h4.375V223.285h-4.375Z" transform="translate(489.975 9011.214)" fill-rule="evenodd"></path><path id="Path_610" data-name="Path 610" d="M633.523,231.305v-5.917a4.988,4.988,0,0,1,1.522.1,1.144,1.144,0,0,1,.778.911,8.29,8.29,0,0,1,.189,1.589,12.823,12.823,0,0,1-.144,2.115,1.3,1.3,0,0,1-1.418,1.2c-.3.014-.6,0-.926,0m.543-.549c.172,0,.313,0,.454,0a.79.79,0,0,0,.783-.629,2.166,2.166,0,0,0,.058-.228,9.251,9.251,0,0,0,.029-2.961c-.126-.872-.539-1.147-1.325-.964Z" transform="translate(484.363 9012.242)" fill-rule="evenodd"></path></g></svg> 