<?xml version="1.0" encoding="UTF-8"?> <svg xmlns="http://www.w3.org/2000/svg" width="120.721" height="31.945" viewBox="0 0 120.721 31.945"><g id="Group_582" data-name="Group 582" transform="translate(-877.974 -9216.341)"><path id="Path_578" data-name="Path 578" d="M478.975,242a8.463,8.463,0,0,1-4.872-1.537,8.471,8.471,0,0,1-13.336-6.938v-.978h11.685v.978a6.505,6.505,0,0,0,1.651,4.34,6.475,6.475,0,0,0,1.654-4.34c0-4.118-3.32-5.469-7.165-7.034-3.673-1.493-7.826-3.186-7.826-7.962a8.474,8.474,0,0,1,13.343-6.935,8.47,8.47,0,0,1,13.336,6.935v.978H475.76v-.976a6.493,6.493,0,0,0-1.114-3.645,6.772,6.772,0,0,0-.537-.693,6.5,6.5,0,0,0-1.657,4.338c0,3.461,3.064,4.711,6.612,6.149,3.929,1.6,8.384,3.411,8.384,8.842A8.484,8.484,0,0,1,478.975,242m-3.361-2.886a6.522,6.522,0,0,0,9.881-5.59c0-4.118-3.32-5.469-7.164-7.034-3.673-1.493-7.827-3.186-7.827-7.962a8.445,8.445,0,0,1,2.107-5.585,6.52,6.52,0,0,0-9.891,5.587c0,3.461,3.064,4.711,6.61,6.149,3.929,1.6,8.385,3.411,8.385,8.842a8.416,8.416,0,0,1-2.105,5.591ZM462.792,234.5a6.525,6.525,0,0,0,9.81,4.612,8.467,8.467,0,0,1-2.048-4.612Zm14.865-16.948h7.762a6.518,6.518,0,0,0-9.807-4.609,8.472,8.472,0,0,1,2.047,4.609Z" transform="translate(417.207 9006.286)"></path><path id="Path_579" data-name="Path 579" d="M494.667,226.161c0,2.048-1.773,3-3.926,3-2.112,0-4.012-1.246-4.012-3.569h2.236c0,1.289.8,1.754,1.9,1.754.908,0,1.605-.3,1.605-1.14,0-.929-.992-.993-3.062-1.794-1.371-.528-2.343-1.039-2.343-2.744,0-1.858,1.689-2.851,3.7-2.851a3.506,3.506,0,0,1,3.758,3.336h-2.236a1.38,1.38,0,0,0-1.218-1.525,1.339,1.339,0,0,0-.365.008c-.782,0-1.415.379-1.415,1.076,0,.844.908.95,2.7,1.646,1.369.522,2.68,1.008,2.68,2.805" transform="translate(427.299 9009.691)"></path><path id="Path_580" data-name="Path 580" d="M493.661,224a5.19,5.19,0,1,1,5.209,5.172h-.038a5.048,5.048,0,0,1-5.172-4.923c0-.082,0-.165,0-.249m8.085,0a2.9,2.9,0,1,0-2.914,3.125,2.944,2.944,0,0,0,2.919-2.968c0-.053,0-.1-.006-.157" transform="translate(429.992 9009.681)"></path><path id="Path_581" data-name="Path 581" d="M502.565,219.069h2.3v1.372a3.5,3.5,0,0,1,3.209-1.625,3.343,3.343,0,0,1,2.954,1.329,4.933,4.933,0,0,1,.633,2.914v5.848h-2.3V223.82c0-1.689-.486-2.977-2.132-2.977-1.605,0-2.365,1.289-2.365,2.977v5.087h-2.3Z" transform="translate(433.455 9009.688)"></path><path id="Path_582" data-name="Path 582" d="M510.5,224a5.19,5.19,0,1,1,5.209,5.172h-.037a5.048,5.048,0,0,1-5.172-4.923c0-.082,0-.165,0-.249m8.085,0a2.9,2.9,0,1,0-2.914,3.125,2.944,2.944,0,0,0,2.919-2.968c0-.053,0-.1-.006-.157" transform="translate(436.539 9009.681)"></path><path id="Path_583" data-name="Path 583" d="M520.889,218.995l2.7,6.548,2.744-6.548h2.471l-4.455,9.838H522.81l-4.393-9.838Z" transform="translate(439.617 9009.762)"></path><path id="Path_584" data-name="Path 584" d="M536.724,219.066V228.9h-2.3v-1.33a3.692,3.692,0,0,1-3.04,1.583,5.173,5.173,0,0,1,0-10.343,3.692,3.692,0,0,1,3.04,1.583v-1.33Zm-2.3,4.919a2.9,2.9,0,1,0-2.914,3.125,2.944,2.944,0,0,0,2.92-2.966c0-.053,0-.106-.006-.158Z" transform="translate(442.697 9009.69)"></path><path id="Path_585" data-name="Path 585" d="M541.732,229.666a11.015,11.015,0,0,1-1.711.126c-1.118,0-3.187-.147-3.187-3.462v-4.581h-1.668v-1.921h1.668v-2.977h2.3v2.977h2.26v1.921h-2.26V225.8c0,1.71.528,1.922,1.437,1.922a8.776,8.776,0,0,0,1.161-.085Z" transform="translate(446.129 9008.928)"></path><path id="Path_586" data-name="Path 586" d="M543.2,224.682a2.4,2.4,0,0,0,2.636,2.555,1.948,1.948,0,0,0,2.09-1.287h2.322c-.275,1.689-1.9,3.209-4.412,3.209-3.315,0-4.919-2.28-4.919-5.173,0-2.954,1.753-5.172,4.855-5.172a4.435,4.435,0,0,1,4.558,4.311c0,.04,0,.082,0,.122a8.167,8.167,0,0,1-.106,1.437Zm0-1.71h4.9a2.271,2.271,0,0,0-2.107-2.425,2.084,2.084,0,0,0-.279,0,2.306,2.306,0,0,0-2.507,2.082,2.356,2.356,0,0,0-.005.342Z" transform="translate(448.363 9009.69)"></path></g></svg> 