<?xml version="1.0" encoding="UTF-8"?> <svg xmlns="http://www.w3.org/2000/svg" width="75.376" height="62.301" viewBox="0 0 75.376 62.301"><g id="Group_576" data-name="Group 576" transform="translate(-714.261 -9062.015)"><path id="Path_576" data-name="Path 576" d="M393.265,130.739c2.086-.772,3.137-1.822,3.03-4.188a55.074,55.074,0,0,1,2.7-19.884,24.39,24.39,0,0,1,3.018-5.869,3.723,3.723,0,0,1,4.218-1.711c1.8.551,2.508,2.14,2.719,3.87.531,4.362-.543,8.507-1.954,12.568-1.532,4.412-3.166,8.795-6.256,12.424a1.45,1.45,0,0,0,.34,2.3,2.658,2.658,0,0,0,2.279.369,4.5,4.5,0,0,0,1.925-2.2,101.429,101.429,0,0,0,3.532-10.357c.375-1.422.8-2.286,2.187-2.666.689-.189,1.344-.5,2.208-.829-.226,2.8-.453,5.469-.651,8.135a18.89,18.89,0,0,0-.075,2.827,4.849,4.849,0,0,0,.61,1.429,4.033,4.033,0,0,0,1.228-.722c.683-.864,1.247-1.822,1.909-2.819l2.026,1.182a37.125,37.125,0,0,1-3.451,4.823c-2.44,2.486-5.019,1.8-6.348-1.648a19.623,19.623,0,0,1-1.775,3.176,14.98,14.98,0,0,1-3.715,3.665c-2.56,1.46-4.594.319-6.258-3.109-1.98.993-4.051,1.629-4.484,4.443A6.045,6.045,0,0,1,388,141.085a4.769,4.769,0,0,1-5.7-1.8c-.505.947-.86,1.755-1.343,2.478a16.593,16.593,0,0,1-1.85,2.343c-1.228,1.265-2.747,2.083-4.5,1.4s-1.973-2.408-2.036-4.059c-.049-1.326-.01-2.655-.01-4.275l-4.893,3.475c3.365,2.947,3.952,6.51,2.864,10.427a8.3,8.3,0,0,1-1.6,3.075,18.829,18.829,0,0,1-17.479,6.913c-3.489-.424-4.8-2.773-2.823-5.663a86.359,86.359,0,0,1,7.753-9.085,57.053,57.053,0,0,1,4.244-3.83c-1.223-.525-2.316-.983-3.4-1.46-2.541-1.115-5.151-2.1-7.6-3.387-5.7-3-7.573-7.03-6.437-13.375,1.882-10.5,14.586-19.606,25.129-17.965a9.786,9.786,0,0,1,6.765,3.916c-.986.9-1.944,1.772-2.952,2.69-3.439-3.415-7.426-3.432-11.511-1.893-6.316,2.378-11.035,6.37-12.549,13.328a6.6,6.6,0,0,0,2.448,7.145,43.188,43.188,0,0,0,6.428,3.8c2.323,1.178,4.748,2.166,7.171,3.132a2.165,2.165,0,0,0,1.743-.175c2.157-1.473,4.255-3.036,6.324-4.631a2.514,2.514,0,0,0,.94-1.436c.233-1.644.3-3.312.44-5.156l-4.436,1.716c-.4-2.715-.367-2.982,1.95-3.808,2-.711,3.272-1.683,2.911-4.025-.258-1.672.871-2.323,2.212-2.786.622-.215,1.219-.5,2.075-.862-.078,1.568-.146,2.955-.225,4.565l5.183-2.159c.487,2.805.275,3.557-2.183,4.215-2.732.732-3.757,2.2-3.791,5-.046,3.658-.557,7.309-.79,10.968a5.778,5.778,0,0,0,.51,1.816c.6-.3,1.551-.461,1.757-.939.955-2.215,1.739-4.508,2.518-6.8.726-2.135,1.1-4.438,2.123-6.412a5.345,5.345,0,0,1,6.08-2.8c2.473.631,3.261,2.627,3.6,4.894.049.324.11.644.2,1.142m-38.573,27.146c4.708-.293,8.453-2.114,10.965-6.133a4.917,4.917,0,0,0-1.341-7.049,1.449,1.449,0,0,0-1.368-.042c-3.266,3.4-6.5,6.83-9.648,10.343a2.911,2.911,0,0,0-.494,2.251c.068.326,1.223.426,1.886.629m45.631-34.264a34.435,34.435,0,0,0,5.113-18.272,9.283,9.283,0,0,0-.54-2.105l-.885-.042c-3.312,6.355-3.126,13.457-3.688,20.419m-10.5,7.751-.218-.05a3.093,3.093,0,0,0-.024-1.153c-.374-.849-.861-1.647-1.3-2.466-.76.617-1.976,1.108-2.187,1.876a24.078,24.078,0,0,0-.792,6c-.01.7.911,1.422,1.407,2.134.668-.567,1.647-1.007,1.937-1.725a32.328,32.328,0,0,0,1.179-4.615" transform="translate(371.381 8963.087)"></path><path id="Path_577" data-name="Path 577" d="M390.486,110.861c-.949-.064-1.3-.975-1.286-2.155a2.342,2.342,0,0,1,2.291-2.536c1.3.115,1.808.94,1.753,2.178a2.481,2.481,0,0,1-2.758,2.514" transform="translate(389.387 8965.9)"></path></g></svg> 