<?xml version="1.0" encoding="UTF-8"?> <svg xmlns="http://www.w3.org/2000/svg" width="122.534" height="65.755" viewBox="0 0 122.534 65.755"><g id="Group_572" data-name="Group 572" transform="translate(-879.364 -8924.631)"><path id="Path_543" data-name="Path 543" d="M528.167,8.643l-.657.256L493.353,22.215a18.7,18.7,0,0,0,1.282,2.557l27.038-10.821-2.918,17.912a13.176,13.176,0,0,0,2.422-1.393l6.876-21.46Z" transform="translate(429.875 8927.99)"></path><path id="Path_544" data-name="Path 544" d="M462.837,35.6a.843.843,0,0,0,.272.343,2.035,2.035,0,0,0,.544.283,6.531,6.531,0,0,0,.883.237,3.911,3.911,0,0,1,1.621.678,1.476,1.476,0,0,1,.519,1.193,1.774,1.774,0,0,1-.167.769,1.715,1.715,0,0,1-.46.589,2.043,2.043,0,0,1-.7.376,2.957,2.957,0,0,1-.9.132,3.951,3.951,0,0,1-1.44-.254,4.092,4.092,0,0,1-1.237-.783l.46-.546a3.854,3.854,0,0,0,1.042.7,2.985,2.985,0,0,0,1.21.229,1.693,1.693,0,0,0,1.065-.31.985.985,0,0,0,.4-.818,1.1,1.1,0,0,0-.075-.418.833.833,0,0,0-.264-.332,1.869,1.869,0,0,0-.521-.274,6.437,6.437,0,0,0-.851-.235,6.855,6.855,0,0,1-.983-.282,2.457,2.457,0,0,1-.69-.385,1.432,1.432,0,0,1-.405-.526,1.794,1.794,0,0,1-.131-.714,1.652,1.652,0,0,1,.158-.724,1.683,1.683,0,0,1,.451-.569,2.17,2.17,0,0,1,.685-.376,2.637,2.637,0,0,1,.862-.136,3.638,3.638,0,0,1,1.261.2,3.8,3.8,0,0,1,1.046.6l-.432.572a3.22,3.22,0,0,0-.922-.544,2.853,2.853,0,0,0-.971-.165,1.839,1.839,0,0,0-.576.083,1.555,1.555,0,0,0-.443.226.974.974,0,0,0-.281.339.944.944,0,0,0-.1.422,1.123,1.123,0,0,0,.075.421" transform="translate(417.596 8937.635)"></path><path id="Path_545" data-name="Path 545" d="M472.127,37.282a3.741,3.741,0,0,1-.2,1.267,2.485,2.485,0,0,1-.558.91,2.294,2.294,0,0,1-.864.549,3.488,3.488,0,0,1-2.232,0,2.33,2.33,0,0,1-.864-.544,2.441,2.441,0,0,1-.557-.894,3.538,3.538,0,0,1-.2-1.23V33.521h.737v3.77a2.324,2.324,0,0,0,.528,1.64,1.909,1.909,0,0,0,1.472.574,1.936,1.936,0,0,0,1.444-.543,2.221,2.221,0,0,0,.535-1.621v-3.82h.736Z" transform="translate(419.496 8937.661)"></path><path id="Path_546" data-name="Path 546" d="M476.9,36.55a1.978,1.978,0,0,1-.558.676,2.417,2.417,0,0,1-.818.407,3.492,3.492,0,0,1-.994.136h-1.6v2.318H472.2V33.521h2.458a3.351,3.351,0,0,1,1.008.147,2.341,2.341,0,0,1,.779.414,1.761,1.761,0,0,1,.5.657,2.111,2.111,0,0,1,.174.876,2.037,2.037,0,0,1-.21.935m-1.019-1.983a2.1,2.1,0,0,0-1.283-.361h-1.667v2.889h1.621a2.493,2.493,0,0,0,.736-.1,1.718,1.718,0,0,0,.574-.294,1.313,1.313,0,0,0,.367-.46,1.375,1.375,0,0,0,.126-.6,1.222,1.222,0,0,0-.474-1.075" transform="translate(421.65 8937.661)"></path><path id="Path_547" data-name="Path 547" d="M481.793,34.2h-4.006v2.246h3.584v.674h-3.584v2.3h4.054v.676h-4.794V33.521h4.747Z" transform="translate(423.535 8937.661)"></path><path id="Path_548" data-name="Path 548" d="M486.428,40.086l-1.9-2.551h-1.876v2.551h-.736V33.521h2.823a3.131,3.131,0,0,1,.98.14,2.212,2.212,0,0,1,.746.4,1.8,1.8,0,0,1,.479.619,1.905,1.905,0,0,1,.168.8,1.989,1.989,0,0,1-.132.736,1.641,1.641,0,0,1-.371.562,2.023,2.023,0,0,1-.571.4,2.584,2.584,0,0,1-.712.226l2.015,2.68Zm-.507-5.537a1.98,1.98,0,0,0-1.242-.343h-2.032v2.676h2.022a2.335,2.335,0,0,0,.678-.093,1.641,1.641,0,0,0,.535-.268,1.261,1.261,0,0,0,.354-.429,1.28,1.28,0,0,0,.126-.574,1.152,1.152,0,0,0-.442-.969" transform="translate(425.428 8937.661)"></path><path id="Path_549" data-name="Path 549" d="M489.946,40.086h-.736v-2.6l-2.739-3.966h.9L489.58,36.8l2.228-3.282h.862l-2.725,3.957Z" transform="translate(427.199 8937.662)"></path><path id="Path_550" data-name="Path 550" d="M497.674,40.1h-.8l-.775-1.732h-3.58l-.779,1.736h-.76l2.993-6.612h.694Zm-3.348-5.742-1.511,3.35h2.993Z" transform="translate(428.953 8937.65)"></path><path id="Path_551" data-name="Path 551" d="M501.968,39.55a3.263,3.263,0,0,1-1.28.6,3.664,3.664,0,0,1-.817.085,3.219,3.219,0,0,1-3.047-2.054,3.663,3.663,0,0,1,0-2.65,3.367,3.367,0,0,1,.689-1.085,3.193,3.193,0,0,1,1.05-.736,3.3,3.3,0,0,1,1.332-.268,3.971,3.971,0,0,1,.811.075,3.422,3.422,0,0,1,.671.211,3.039,3.039,0,0,1,.572.328,4.8,4.8,0,0,1,.507.428l-.507.544a4.09,4.09,0,0,0-.906-.647,2.53,2.53,0,0,0-2.972.525,2.627,2.627,0,0,0-.535.858,3.044,3.044,0,0,0,0,2.133,2.641,2.641,0,0,0,.535.864,2.5,2.5,0,0,0,.807.576,2.38,2.38,0,0,0,1.008.211,2.548,2.548,0,0,0,1.162-.249,4.041,4.041,0,0,0,.957-.7l.487.479a4.6,4.6,0,0,1-.525.474" transform="translate(431.127 8937.629)"></path><path id="Path_552" data-name="Path 552" d="M502.85,37.131v2.955h-.736V33.521h.736v2.921h3.788V33.521h.736v6.566h-.736V37.131Z" transform="translate(433.279 8937.661)"></path><path id="Path_553" data-name="Path 553" d="M510.187,40.086h-.736v-5.88h-2.208v-.685H512.4v.685h-2.208Z" transform="translate(435.273 8937.662)"></path><path id="Path_554" data-name="Path 554" d="M512.956,35.6a.842.842,0,0,0,.272.343,2.045,2.045,0,0,0,.543.283,6.588,6.588,0,0,0,.892.237,3.912,3.912,0,0,1,1.619.678,1.463,1.463,0,0,1,.521,1.193,1.735,1.735,0,0,1-.167.769,1.715,1.715,0,0,1-.46.589,2.049,2.049,0,0,1-.706.376,2.948,2.948,0,0,1-.9.132,3.951,3.951,0,0,1-1.44-.254,4.1,4.1,0,0,1-1.243-.786l.46-.546a3.855,3.855,0,0,0,1.042.7,2.985,2.985,0,0,0,1.21.229,1.7,1.7,0,0,0,1.065-.31.99.99,0,0,0,.4-.818,1.1,1.1,0,0,0-.075-.418.849.849,0,0,0-.264-.333,1.891,1.891,0,0,0-.522-.272,6.438,6.438,0,0,0-.851-.235,6.89,6.89,0,0,1-.982-.282,2.428,2.428,0,0,1-.69-.386,1.418,1.418,0,0,1-.405-.525,1.794,1.794,0,0,1-.131-.714,1.649,1.649,0,0,1,.158-.724,1.678,1.678,0,0,1,.451-.568,2.17,2.17,0,0,1,.685-.376,2.637,2.637,0,0,1,.862-.136,3.639,3.639,0,0,1,1.261.2,3.778,3.778,0,0,1,1.046.6l-.43.572a3.213,3.213,0,0,0-.924-.544,2.817,2.817,0,0,0-.971-.164,1.88,1.88,0,0,0-.576.083,1.553,1.553,0,0,0-.443.226.962.962,0,0,0-.281.339.925.925,0,0,0-.1.422,1.12,1.12,0,0,0,.074.421" transform="translate(437.08 8937.634)"></path><path id="Path_555" data-name="Path 555" d="M520.007,38.286h-.039l-2.391-3.508v5.309h-.724V33.521h.751L520,37.1l2.391-3.583h.75v6.566H522.4V34.768Z" transform="translate(439.01 8937.661)"></path><path id="Path_556" data-name="Path 556" d="M529.3,38.124a3.445,3.445,0,0,1-.685,1.083,3.283,3.283,0,0,1-2.43,1.022,3.359,3.359,0,0,1-1.364-.271,3.232,3.232,0,0,1-1.736-1.816,3.623,3.623,0,0,1,0-2.6,3.429,3.429,0,0,1,.685-1.083,3.281,3.281,0,0,1,1.06-.746,3.536,3.536,0,0,1,2.734,0,3.234,3.234,0,0,1,1.743,1.811,3.588,3.588,0,0,1,.239,1.3,3.5,3.5,0,0,1-.25,1.3m-.725-2.34a2.567,2.567,0,0,0-1.359-1.444,2.461,2.461,0,0,0-1.03-.217,2.51,2.51,0,0,0-1.03.212,2.422,2.422,0,0,0-.811.575,2.733,2.733,0,0,0-.53.858,3,3,0,0,0,0,2.116,2.576,2.576,0,0,0,1.36,1.444,2.48,2.48,0,0,0,1.03.215,2.508,2.508,0,0,0,1.03-.211,2.431,2.431,0,0,0,.811-.576,2.673,2.673,0,0,0,.53-.86,2.875,2.875,0,0,0,.193-1.054,2.941,2.941,0,0,0-.193-1.06" transform="translate(441.34 8937.63)"></path><path id="Path_557" data-name="Path 557" d="M533.963,33.521h.721v6.565h-.589l-4.24-5.384v5.384h-.721V33.521h.693l4.137,5.261Z" transform="translate(443.783 8937.662)"></path><path id="Path_558" data-name="Path 558" d="M541.078,40.1h-.8l-.764-1.732h-3.573L535.16,40.1h-.76l2.991-6.612h.694Zm-3.35-5.742-1.5,3.348h2.991Z" transform="translate(445.83 8937.65)"></path><path id="Path_559" data-name="Path 559" d="M545.379,39.55a3.174,3.174,0,0,1-1.273.6,3.661,3.661,0,0,1-.815.085,3.228,3.228,0,0,1-2.357-.979,3.269,3.269,0,0,1-.69-1.075,3.679,3.679,0,0,1,0-2.65,3.434,3.434,0,0,1,.69-1.085,3.207,3.207,0,0,1,1.05-.736,3.29,3.29,0,0,1,1.325-.268,3.994,3.994,0,0,1,.812.075,3.438,3.438,0,0,1,.669.211,2.994,2.994,0,0,1,.572.328,5.14,5.14,0,0,1,.507.428l-.507.544a4.1,4.1,0,0,0-.905-.647,2.528,2.528,0,0,0-2.969.526,2.648,2.648,0,0,0-.535.858,3.043,3.043,0,0,0,0,2.133,2.662,2.662,0,0,0,.535.864,2.517,2.517,0,0,0,.807.576,2.4,2.4,0,0,0,1.007.211,2.533,2.533,0,0,0,1.164-.249,4.042,4.042,0,0,0,.957-.7l.487.479a4.514,4.514,0,0,1-.531.472" transform="translate(448.006 8937.629)"></path><path id="Path_560" data-name="Path 560" d="M551.632,38.124a3.365,3.365,0,0,1-.685,1.083,3.223,3.223,0,0,1-1.06.744,3.319,3.319,0,0,1-1.369.278,3.365,3.365,0,0,1-1.365-.271,3.247,3.247,0,0,1-1.734-1.816,3.543,3.543,0,0,1-.239-1.3,3.472,3.472,0,0,1,.244-1.3,3.363,3.363,0,0,1,.685-1.083,3.279,3.279,0,0,1,1.06-.746,3.536,3.536,0,0,1,2.734,0,3.225,3.225,0,0,1,1.735,1.816,3.548,3.548,0,0,1,.239,1.3,3.448,3.448,0,0,1-.245,1.294m-.717-2.34a2.565,2.565,0,0,0-1.361-1.444,2.46,2.46,0,0,0-1.03-.217,2.51,2.51,0,0,0-1.031.212,2.459,2.459,0,0,0-.811.575,2.731,2.731,0,0,0-.531.858,2.894,2.894,0,0,0-.192,1.057,2.942,2.942,0,0,0,.192,1.06,2.583,2.583,0,0,0,1.361,1.444,2.481,2.481,0,0,0,1.031.215,2.508,2.508,0,0,0,1.03-.211,2.465,2.465,0,0,0,.811-.576,2.675,2.675,0,0,0,.531-.86,2.875,2.875,0,0,0,.193-1.054,2.938,2.938,0,0,0-.193-1.06" transform="translate(450.021 8937.63)"></path><path id="Path_561" data-name="Path 561" d="M520.575,10.573a.572.572,0,0,0-.022-.1L514.8,28.332a18.527,18.527,0,0,0,5.9-17.079s-.086-.508-.125-.68" transform="translate(438.211 8928.704)"></path><path id="Path_562" data-name="Path 562" d="M501.923,19.766a8.638,8.638,0,0,0,14.1-5.644Z" transform="translate(433.205 8930.12)"></path><path id="Path_563" data-name="Path 563" d="M516.02,11.845A8.665,8.665,0,0,0,499.952,18.1Z" transform="translate(432.316 8927.396)"></path><path id="Path_564" data-name="Path 564" d="M500.147,20.13a10.081,10.081,0,0,1,18.717-7.288l3.744-1.457a14.081,14.081,0,0,0-26.2,10.206Z" transform="translate(430.797 8925.88)"></path><path id="Path_565" data-name="Path 565" d="M496.324,23.356a15.513,15.513,0,0,1,28.863-11.239l2.847-1.11a18.564,18.564,0,0,0-34.557,13.457Z" transform="translate(429.547 8924.631)"></path><path id="Path_566" data-name="Path 566" d="M517.937,16.656a10.047,10.047,0,0,1-15.962,2.715l-3.968,1.587a14.016,14.016,0,0,0,18.758,2.851Z" transform="translate(431.684 8931.105)"></path><path id="Path_567" data-name="Path 567" d="M517.666,24.3a15.46,15.46,0,0,1-19.835-4.152l-2.925,1.178a18.549,18.549,0,0,0,22.159,6.646Z" transform="translate(430.479 8932.465)"></path><path id="Path_568" data-name="Path 568" d="M481.007,44.977h.769l.675,2.208.736-2.216h.614l.736,2.216.676-2.208h.75l-1.114,3.284h-.624l-.737-2.133-.736,2.133h-.636Z" transform="translate(425.074 8942.111)"></path><path id="Path_569" data-name="Path 569" d="M488.061,46.625v-.008a1.735,1.735,0,0,1,3.466-.011v.011a1.735,1.735,0,0,1-3.466.008m2.715,0v-.008a.991.991,0,0,0-.947-1.03h-.039a.974.974,0,0,0-.979.971c0,.014,0,.029,0,.043v.01a.991.991,0,0,0,.95,1.03h.036a.976.976,0,0,0,.982-.968c0-.017,0-.032,0-.049Z" transform="translate(427.816 8942.104)"></path><path id="Path_570" data-name="Path 570" d="M494.369,44.975h1.49a1.3,1.3,0,0,1,.95.332,1.024,1.024,0,0,1,.279.744v.01a1.013,1.013,0,0,1-.7,1.011l.794,1.164h-.837l-.7-1.043h-.564v1.043h-.717Zm1.443,1.59c.349,0,.551-.186.551-.461V46.1c0-.308-.215-.467-.565-.467h-.712v.936Z" transform="translate(430.27 8942.113)"></path><path id="Path_571" data-name="Path 571" d="M500.147,44.974h.717v2.609h1.619v.651h-2.336Z" transform="translate(432.516 8942.114)"></path><path id="Path_572" data-name="Path 572" d="M505.571,44.974h1.272a1.622,1.622,0,0,1,1.733,1.619v.01a1.632,1.632,0,0,1-1.733,1.63h-1.272Zm1.272,2.621a.929.929,0,0,0,.983-.872c0-.033,0-.067,0-.1v-.008a.936.936,0,0,0-.89-.983c-.03,0-.062,0-.093,0h-.56v1.965Z" transform="translate(434.625 8942.113)"></path><path id="Path_573" data-name="Path 573" d="M511.23,44.977H512l.676,2.208.736-2.216h.615l.736,2.216.676-2.208h.75l-1.114,3.284h-.624l-.737-2.133-.736,2.133h-.633Z" transform="translate(436.824 8942.111)"></path><rect id="Rectangle_1011" data-name="Rectangle 1011" width="0.717" height="3.261" transform="translate(958.217 8987.088)"></rect><path id="Path_574" data-name="Path 574" d="M523,44.974h1.272a1.621,1.621,0,0,1,1.73,1.619v.01a1.631,1.631,0,0,1-1.73,1.63H523Zm1.272,2.621a.928.928,0,0,0,.98-.874q0-.05,0-.1v-.008a.936.936,0,0,0-.886-.983c-.032,0-.064,0-.094,0h-.557v1.965Z" transform="translate(441.4 8942.113)"></path><path id="Path_575" data-name="Path 575" d="M528.976,44.974h2.461v.639h-1.748v.657h1.537v.639h-1.537v.686h1.766v.637h-2.479Z" transform="translate(443.723 8942.114)"></path></g></svg> 