<?xml version="1.0" encoding="UTF-8"?> <svg xmlns="http://www.w3.org/2000/svg" width="104.157" height="23.481" viewBox="0 0 104.157 23.481"><g id="Group_578" data-name="Group 578" transform="translate(-1092.724 -9084.873)"><path id="Path_524" data-name="Path 524" d="M685.152,124.255h0a3.137,3.137,0,0,1,.157-.883,2.781,2.781,0,0,1,5.1,0,3.325,3.325,0,0,1,.162,1.107.144.144,0,0,1-.122.161.2.2,0,0,1-.04,0h-5.259s-.006-.226,0-.383m.01,3.086h0a3.819,3.819,0,0,1-.017-.435h8.174a.263.263,0,0,0,.3-.226.231.231,0,0,0,0-.043,11.624,11.624,0,0,0-.432-3.911,5.748,5.748,0,0,0-10.654,0,10.371,10.371,0,0,0-.432,3.209,10.1,10.1,0,0,0,.458,3.183c.729,2.265,2.671,3.613,5.422,3.613a6.845,6.845,0,0,0,5.341-2.212.24.24,0,0,0,.014-.342.2.2,0,0,0-.04-.035l-1.593-1.4a.272.272,0,0,0-.4.054,3.917,3.917,0,0,1-3.047,1.24,2.84,2.84,0,0,1-2.914-1.969,3.024,3.024,0,0,1-.172-.715v-.008" transform="translate(503.244 8970.943)"></path><path id="Path_525" data-name="Path 525" d="M654.089,124.255h0a3.141,3.141,0,0,1,.157-.883,2.781,2.781,0,0,1,5.1,0,3.321,3.321,0,0,1,.162,1.107.143.143,0,0,1-.122.161.2.2,0,0,1-.04,0h-5.259s-.005-.226,0-.383m.01,3.086h0a3.8,3.8,0,0,1-.017-.435h8.174a.263.263,0,0,0,.294-.226.224.224,0,0,0,0-.043,11.622,11.622,0,0,0-.432-3.911,5.748,5.748,0,0,0-10.654,0,10.366,10.366,0,0,0-.432,3.209,10.135,10.135,0,0,0,.458,3.183c.729,2.265,2.671,3.613,5.422,3.613a6.855,6.855,0,0,0,5.341-2.212.241.241,0,0,0,.014-.342.2.2,0,0,0-.04-.035l-1.591-1.4a.275.275,0,0,0-.387.032l-.017.022a3.92,3.92,0,0,1-3.048,1.24,2.838,2.838,0,0,1-2.912-1.969,3.094,3.094,0,0,1-.174-.715v-.008" transform="translate(491.17 8970.943)"></path><path id="Path_526" data-name="Path 526" d="M668.682,133.729a.253.253,0,0,1-.269-.235.143.143,0,0,1,0-.035V121a.252.252,0,0,1,.235-.269.147.147,0,0,1,.035,0h2.482a.252.252,0,0,1,.269.235.132.132,0,0,1,0,.035V133.46a.251.251,0,0,1-.235.269.145.145,0,0,1-.035,0Zm0-15.455a.253.253,0,0,1-.269-.235.144.144,0,0,1,0-.035v-2.347a.253.253,0,0,1,.235-.269.145.145,0,0,1,.035,0h2.482a.253.253,0,0,1,.269.235.132.132,0,0,1,0,.035V118a.253.253,0,0,1-.235.269.146.146,0,0,1-.035,0Z" transform="translate(497.926 8969.485)"></path><path id="Path_527" data-name="Path 527" d="M630.136,127.975c0,1.483-1.025,2.211-2.886,2.211-1.457,0-2.239-.539-2.239-1.619,0-1.214.864-1.753,2.805-1.753h2.321Zm-2.562-8.932a7.587,7.587,0,0,0-4.612,1.264.254.254,0,0,0-.054.351l1,1.78a.241.241,0,0,0,.329.089.3.3,0,0,0,.049-.035,4.555,4.555,0,0,1,2.966-.892c2.184,0,2.886.675,2.886,2.158v.782h-2.805c-3.209,0-5.205,1.294-5.205,4.129,0,2.725,2,3.965,4.369,3.965a4.242,4.242,0,0,0,3.669-1.511h.026v.95a.253.253,0,0,0,.235.269.147.147,0,0,0,.035,0h2.266a.252.252,0,0,0,.269-.235.137.137,0,0,0,0-.035v-8.495c0-3.183-1.457-4.531-5.422-4.531" transform="translate(479.934 8970.902)"></path><path id="Path_528" data-name="Path 528" d="M640.177,132.309a.253.253,0,0,1-.27-.235.15.15,0,0,1,0-.035v-7.5c0-1.673-.837-2.833-2.455-2.833-1.564,0-2.482,1.16-2.482,2.833v7.5a.252.252,0,0,1-.235.269.142.142,0,0,1-.035,0H632.22a.253.253,0,0,1-.269-.235v-12.5a.253.253,0,0,1,.235-.269.143.143,0,0,1,.035,0h2.486a.252.252,0,0,1,.269.235v.978H635a4.022,4.022,0,0,1,3.426-1.51c2.78,0,4.5,2.05,4.5,4.827v8.2a.253.253,0,0,1-.235.269.142.142,0,0,1-.035,0Z" transform="translate(483.752 8970.891)"></path><path id="Path_529" data-name="Path 529" d="M649.276,127.618a6.03,6.03,0,0,0,.3-2.13,6.234,6.234,0,0,0-.3-2.132,2.439,2.439,0,0,0-4.612,0,6.267,6.267,0,0,0-.3,2.132,6.062,6.062,0,0,0,.3,2.13,2.426,2.426,0,0,0,4.612,0m-7.471,7.9a.242.242,0,0,1-.012-.343.236.236,0,0,1,.039-.035l1.591-1.591a.253.253,0,0,1,.354-.05.211.211,0,0,1,.05.05,3.985,3.985,0,0,0,2.833,1.214c2,0,2.912-1.078,2.912-3.1v-1.214h-.026a3.752,3.752,0,0,1-3.37,1.51,4.344,4.344,0,0,1-4.425-3.155,9.9,9.9,0,0,1-.43-3.318,9.738,9.738,0,0,1,.43-3.29,4.337,4.337,0,0,1,4.425-3.183,3.707,3.707,0,0,1,3.37,1.537h.026v-.971a.253.253,0,0,1,.235-.271h2.516a.253.253,0,0,1,.269.236.138.138,0,0,1,0,.035V131.5c0,3.722-2.076,5.962-6.066,5.962a6.43,6.43,0,0,1-4.719-1.939" transform="translate(487.391 8970.89)"></path><path id="Path_530" data-name="Path 530" d="M661.2,132.309a.253.253,0,0,1-.269-.235.15.15,0,0,1,0-.035V119.578a.253.253,0,0,1,.235-.269.145.145,0,0,1,.035,0h2.482a.252.252,0,0,1,.269.235.144.144,0,0,1,0,.035v1.107h.026a3.725,3.725,0,0,1,3.372-1.673,3.921,3.921,0,0,1,2.723,1.079c.135.135.162.243.054.378l-1.432,1.807a.244.244,0,0,1-.335.086.165.165,0,0,1-.043-.032,3.529,3.529,0,0,0-1.915-.621c-1.7,0-2.455,1.215-2.455,3.291v7.039a.253.253,0,0,1-.235.269.143.143,0,0,1-.035,0Z" transform="translate(495.016 8970.891)"></path><path id="Path_531" data-name="Path 531" d="M680.918,132.309a.253.253,0,0,1-.269-.235.138.138,0,0,1,0-.035v-7.5c0-1.673-.836-2.833-2.455-2.833-1.565,0-2.48,1.16-2.48,2.833v7.5a.253.253,0,0,1-.235.269.143.143,0,0,1-.035,0h-2.482a.253.253,0,0,1-.269-.235.143.143,0,0,1,0-.035V119.578a.253.253,0,0,1,.235-.269.145.145,0,0,1,.035,0h2.482a.252.252,0,0,1,.27.235.157.157,0,0,1,0,.035v.943h.026a4.02,4.02,0,0,1,3.425-1.51c2.782,0,4.505,2.05,4.505,4.827v8.2a.254.254,0,0,1-.236.269.143.143,0,0,1-.035,0Z" transform="translate(499.59 8970.891)"></path><path id="Path_532" data-name="Path 532" d="M622.344,130.684h-.675c-.836,0-1.212-.3-1.212-1.214v-6.909h1.887a.252.252,0,0,0,.269-.235v-1.839a.253.253,0,0,0-.235-.269.145.145,0,0,0-.035,0h-1.887v-3.277a.349.349,0,0,0-.007-.065l-.011-.036v-.01a.233.233,0,0,0-.018-.037l0-.008a.244.244,0,0,0-.206-.111h-.029a.251.251,0,0,0-.054.011l-2.411.776c-.2.074-.276.169-.276.358v2.4h-1.765a.254.254,0,0,0-.271.235v1.843a.254.254,0,0,0,.235.269.156.156,0,0,0,.036,0h1.765v7.013c0,2.536,1,3.8,3.612,3.8h2.022c.207,0,.324-.107.269-.271l-.7-2.161c-.061-.192-.128-.267-.29-.267" transform="translate(477.32 8969.985)"></path></g></svg> 