<?xml version="1.0" encoding="UTF-8"?> <svg xmlns="http://www.w3.org/2000/svg" width="125.103" height="30.285" viewBox="0 0 125.103 30.285"><g id="Group_579" data-name="Group 579" transform="translate(-238.092 -9217.17)"><path id="Path_588" data-name="Path 588" d="M18.406,220.062v8.61A10.328,10.328,0,0,1,8.126,239.018H6.934v-2.412H8.126a7.931,7.931,0,0,0,7.894-7.932v-8.61a1.666,1.666,0,0,1,0-.167v-5.119h2.375v5.284" transform="translate(240.787 9008.122)"></path><rect id="Rectangle_1012" data-name="Rectangle 1012" width="2.359" height="11.779" transform="translate(252.484 9218.72)"></rect><rect id="Rectangle_1013" data-name="Rectangle 1013" width="2.359" height="13.332" transform="translate(248.111 9217.17)"></rect><path id="Path_589" data-name="Path 589" d="M11.474,229.555v2.4H10.281A10.328,10.328,0,0,1,0,221.613v-1.2H2.4v1.2a7.93,7.93,0,0,0,7.885,7.942Z" transform="translate(238.092 9010.313)"></path><rect id="Rectangle_1014" data-name="Rectangle 1014" width="2.359" height="11.492" transform="translate(243.74 9220.72)"></rect><path id="Path_590" data-name="Path 590" d="M27.908,217.255v16.9H25.246v-16.9H18.8v-2.489H34.347v2.489Z" transform="translate(245.4 9008.117)"></path><path id="Path_591" data-name="Path 591" d="M36.315,221.915a8.133,8.133,0,0,0-1.117-.082c-2.147,0-3.587,1.148-3.587,4.047v6.592H29.057V219.316h2.5v2.3a4.083,4.083,0,0,1,3.912-2.515,4.657,4.657,0,0,1,.843.082Z" transform="translate(249.387 9009.801)"></path><path id="Path_592" data-name="Path 592" d="M36.223,221.164h2.526v13.154H36.223Zm1.25-6.821a1.835,1.835,0,1,1-1.3.551,1.837,1.837,0,0,1,1.3-.551" transform="translate(251.951 9007.953)"></path><path id="Path_593" data-name="Path 593" d="M46.305,223c-2.257,0-3.888,1.778-3.888,4.62s1.637,4.7,3.888,4.7c2.336,0,3.858-1.861,3.858-4.7s-1.5-4.62-3.858-4.62m-6.388,11.267v-19.8h2.527v8.5a4.76,4.76,0,0,1,4.322-2.243c3.966,0,6,3.062,6,6.889,0,3.911-2.2,7-6.088,7a4.658,4.658,0,0,1-4.238-2.268v1.911Z" transform="translate(253.609 9008.003)"></path><path id="Path_594" data-name="Path 594" d="M60.261,224.584a3.3,3.3,0,0,0-3.229-3.376,3.427,3.427,0,0,0-.358.011,3.529,3.529,0,0,0-3.561,3.365Zm2.582,4.183a5.926,5.926,0,0,1-5.869,4.155c-3.507,0-6.578-2.569-6.578-7.026,0-4.127,2.964-6.944,6.249-6.944,4.022,0,6.276,2.789,6.276,6.891a5.557,5.557,0,0,1-.056.818H53.034a3.9,3.9,0,0,0,3.8,3.991c.05,0,.1,0,.147,0A3.558,3.558,0,0,0,60.642,228Z" transform="translate(257.682 9009.745)"></path><path id="Path_595" data-name="Path 595" d="M67.288,221.311c-2.337,0-3.888,1.969-3.888,4.594,0,2.708,1.55,4.638,3.888,4.638s3.862-1.94,3.862-4.638c0-2.625-1.471-4.594-3.862-4.594m-6.381,16.37V219.332h2.472v2.048a4.8,4.8,0,0,1,4.363-2.348c3.913,0,6,3.034,6,6.862,0,3.911-2.257,6.944-6.087,6.944a4.844,4.844,0,0,1-4.241-2.13v6.974Z" transform="translate(261.768 9009.773)"></path><path id="Path_596" data-name="Path 596" d="M79.922,226.881v-.6l-4,.6a1.962,1.962,0,0,0-1.91,1.966,1.985,1.985,0,0,0,2.053,1.914l.064,0c2.091,0,3.779-1.012,3.779-3.883m-4.533-1.882,3.545-.519c.789-.108,1.008-.521,1.008-.985,0-1.285-.843-2.353-2.829-2.353a2.784,2.784,0,0,0-2.958,2.594l0,.058-2.455-.572c.272-2.516,2.526-4.265,5.355-4.265,3.912,0,5.436,2.239,5.436,4.809v6.583a12.383,12.383,0,0,0,.162,2.161h-2.5a9.769,9.769,0,0,1-.139-1.776,4.759,4.759,0,0,1-4.212,2.183,4.074,4.074,0,0,1-4.366-3.937c0-2.353,1.714-3.665,3.969-3.993" transform="translate(265.854 9009.745)"></path><path id="Path_597" data-name="Path 597" d="M87.269,232.344c2.336,0,3.775-2.05,3.775-4.756s-1.412-4.568-3.748-4.568-3.861,1.911-3.861,4.622,1.378,4.7,3.833,4.7m3.8-.082a4.376,4.376,0,0,1-4.048,2.353c-3.819,0-6.2-3.062-6.2-6.971,0-3.719,2.5-6.889,6.2-6.889,2.311,0,3.559,1.146,3.994,2.212v-8.5h2.527v17.352a20.666,20.666,0,0,0,.139,2.434H91.211a10.874,10.874,0,0,1-.139-1.776Z" transform="translate(269.512 9008)"></path></g></svg> 