<svg width="46" height="48" viewBox="0 0 46 48"><g id="Group_383" data-name="Group 383" transform="translate(-300 -664)"><g id="Ellipse_3" data-name="Ellipse 3" transform="translate(300 664)" fill="#fff" stroke="#878787" stroke-width="1"><ellipse cx="23" cy="24" rx="23" ry="24" stroke="none"></ellipse><ellipse cx="23" cy="24" rx="22.5" ry="23.5" fill="none"></ellipse></g><g id="Group_263" data-name="Group 263" transform="translate(313.975 678.233)"><path id="Path_158" data-name="Path 158" d="M3574.027,2717.078h4.151a5.134,5.134,0,0,1,5.106,4.165,4.75,4.75,0,0,1,.092.933q.01,4.252,0,8.5a5.137,5.137,0,0,1-4.267,5.019,5.656,5.656,0,0,1-.908.076q-4.184.009-8.369,0a5.144,5.144,0,0,1-5.091-4.343,5.025,5.025,0,0,1-.061-.775q-.006-4.231,0-8.463a5.135,5.135,0,0,1,4.274-5.039,5.49,5.49,0,0,1,.881-.075C3571.233,2717.074,3572.63,2717.078,3574.027,2717.078Zm-7.949,9.343q0,2.068,0,4.138a4.171,4.171,0,0,0,.029.536,3.744,3.744,0,0,0,3.733,3.284q4.192.005,8.383,0a3.762,3.762,0,0,0,3.756-3.783q0-4.165,0-8.329a3.994,3.994,0,0,0-.028-.5,3.738,3.738,0,0,0-3.687-3.288c-2.821-.01-5.643,0-8.463,0a3.579,3.579,0,0,0-1.325.251,3.743,3.743,0,0,0-2.4,3.527Q3566.075,2724.339,3566.079,2726.421Z" transform="translate(-3564.68 -2717.077)" fill="#878787"></path><path id="Path_159" data-name="Path 159" d="M3956.853,3114.268a4.988,4.988,0,1,1,4.985,5A5,5,0,0,1,3956.853,3114.268Zm8.571.012a3.583,3.583,0,1,0-3.58,3.58A3.581,3.581,0,0,0,3965.424,3114.281Z" transform="translate(-3952.49 -3104.927)" fill="#878787"></path><path id="Path_160" data-name="Path 160" d="M4784.772,3006.435a.971.971,0,1,1,.976-.966A.963.963,0,0,1,4784.772,3006.435Z" transform="translate(-4770.245 -3001.296)" fill="#878787"></path></g></g></svg>