<svg width="48" height="48" viewBox="0 0 48 48"><g id="Group_385" data-name="Group 385" transform="translate(-239 -664)"><g id="Ellipse_2" data-name="Ellipse 2" transform="translate(239 664)" fill="#fff" stroke="#878787" stroke-width="1"><circle cx="24" cy="24" r="24" stroke="none"></circle><circle cx="24" cy="24" r="23.5" fill="none"></circle></g><path id="Path_162" data-name="Path 162" d="M7054.868,2739.071a9.672,9.672,0,0,0,6.874-1.969,4.826,4.826,0,0,1-4.4-3.288,5.059,5.059,0,0,0,2.085-.089,4.729,4.729,0,0,1-3.707-4.672,4.955,4.955,0,0,0,2.095.556,4.717,4.717,0,0,1-2.042-3.385,4.566,4.566,0,0,1,.605-2.891,13.517,13.517,0,0,0,9.717,4.925c-.03-.278-.071-.534-.082-.791a4.6,4.6,0,0,1,2.322-4.365,4.686,4.686,0,0,1,5.579.61.542.542,0,0,0,.586.155,9.971,9.971,0,0,0,2.6-1.039,4.913,4.913,0,0,1-1.882,2.563c.277-.05.555-.091.829-.154.291-.067.58-.146.865-.237s.544-.2.816-.295l.046.048c-.376.44-.733.9-1.134,1.315a12.332,12.332,0,0,1-1.046.918.363.363,0,0,0-.147.322,13.662,13.662,0,0,1-2.91,8.8,12.52,12.52,0,0,1-7.932,4.821,13.6,13.6,0,0,1-7.255-.608A11.651,11.651,0,0,1,7054.868,2739.071Z" transform="translate(-6803.229 -2044.228)" fill="#878787"></path></g></svg>